<?xml version="1.0" encoding="utf-8"?>
<!-- Generator: Adobe Illustrator 23.0.2, SVG Export Plug-In . SVG Version: 6.00 Build 0)  -->
<svg version="1.1" id="图层_1" xmlns="http://www.w3.org/2000/svg" xmlns:xlink="http://www.w3.org/1999/xlink" x="0px" y="0px"
	 viewBox="0 0 218 115" style="enable-background:new 0 0 218 115;" xml:space="preserve">
<style type="text/css">
	.st0{fill:#FF9419;fill-opacity:0.2;}
	.st1{fill:#FF9419;}
	.st2{fill-rule:evenodd;clip-rule:evenodd;fill:#FF9419;}
	.st3{fill-rule:evenodd;clip-rule:evenodd;fill:#FFFFFF;}
	.st4{fill:#FFFFFF;}
	.st5{fill-rule:evenodd;clip-rule:evenodd;fill:#6399EB;}
	.st6{fill:#222222;}
</style>
<path id="Rectangle" class="st0" d="M4,100h7c2.2,0,4,1.8,4,4v7c0,2.2-1.8,4-4,4H0v-11C0,101.8,1.8,100,4,100z"/>
<polygon id="Path-2" class="st1" points="6,107 9,111 11,111 11,104 9,104 9,108 6,104 4,104 4,111 6,111 "/>
<path class="st0" d="M29,100h7c2.2,0,4,1.8,4,4v7c0,2.2-1.8,4-4,4H25v-11C25,101.8,26.8,100,29,100z"/>
<polygon class="st1" points="31,108.5 34,108.5 34,111 36,111 36,104 34,104 34,106.5 31,106.5 31,104 29,104 29,111 31,111 "/>
<path class="st0" d="M54.7,100h56.7c1.6,0,2.2,0.2,2.8,0.5c0.6,0.3,1.1,0.9,1.4,1.5c0.3,0.7,0.5,1.3,0.5,3.1v4.7
	c0,1.8-0.2,2.4-0.5,3.1c-0.3,0.7-0.8,1.2-1.4,1.5c-0.6,0.3-1.2,0.5-2.8,0.5H50v-9.9c0-1.8,0.2-2.4,0.5-3.1c0.3-0.7,0.8-1.2,1.4-1.5
	C52.5,100.2,53,100,54.7,100z"/>
<path id="Give200USDT" class="st1" d="M59.7,110.4c-0.3,0.3-0.6,0.5-1,0.7s-0.8,0.2-1.3,0.2c-0.8,0-1.5-0.3-1.9-0.8
	s-0.7-1.2-0.7-2.2V107c0-1,0.2-1.7,0.6-2.3c0.4-0.5,1.1-0.8,1.9-0.8c0.8,0,1.4,0.2,1.7,0.6c0.4,0.4,0.6,1,0.7,1.8h-1.4
	c0-0.5-0.1-0.8-0.3-0.9c-0.1-0.2-0.4-0.2-0.7-0.2c-0.4,0-0.7,0.1-0.8,0.4c-0.2,0.3-0.3,0.7-0.3,1.4v1.3c0,0.6,0.1,1.1,0.3,1.4
	c0.2,0.3,0.5,0.4,1,0.4c0.3,0,0.5-0.1,0.7-0.2l0.1-0.1v-1.3h-1v-1.1h2.4V110.4z M62.1,111.2h-1.4v-5.3h1.4V111.2z M60.7,104.5
	c0-0.2,0.1-0.4,0.2-0.5s0.3-0.2,0.5-0.2c0.2,0,0.4,0.1,0.5,0.2s0.2,0.3,0.2,0.5c0,0.2-0.1,0.4-0.2,0.5c-0.1,0.1-0.3,0.2-0.5,0.2
	s-0.4-0.1-0.5-0.2C60.8,104.9,60.7,104.7,60.7,104.5z M64.9,109.2l0.7-3.3h1.4l-1.5,5.3h-1.3l-1.5-5.3h1.4L64.9,109.2z M69.8,111.3
	c-0.7,0-1.3-0.2-1.7-0.6c-0.4-0.4-0.6-1-0.6-1.8v-0.4c0-0.8,0.2-1.5,0.5-1.9c0.4-0.5,0.9-0.7,1.6-0.7c0.7,0,1.2,0.2,1.5,0.6
	c0.3,0.4,0.5,1.1,0.5,1.9v0.7h-2.7c0,0.4,0.1,0.7,0.3,0.9c0.2,0.2,0.4,0.3,0.7,0.3c0.5,0,0.8-0.2,1.2-0.5l0.5,0.8
	c-0.2,0.2-0.4,0.4-0.7,0.6C70.5,111.2,70.1,111.3,69.8,111.3z M68.9,108h1.4v-0.1c0-0.3-0.1-0.6-0.2-0.7c-0.1-0.2-0.3-0.2-0.5-0.2
	c-0.2,0-0.4,0.1-0.5,0.3C69,107.4,68.9,107.7,68.9,108z M78.9,111.2h-4.2v-1l1.9-2.4c0.2-0.3,0.4-0.6,0.5-0.9
	c0.1-0.3,0.2-0.5,0.2-0.7c0-0.3-0.1-0.6-0.2-0.7c-0.1-0.2-0.3-0.3-0.5-0.3c-0.2,0-0.4,0.1-0.5,0.3c-0.1,0.2-0.2,0.5-0.2,0.9h-1.4
	c0-0.4,0.1-0.8,0.3-1.2c0.2-0.4,0.4-0.6,0.8-0.8s0.7-0.3,1.1-0.3c0.6,0,1.1,0.2,1.5,0.5c0.3,0.3,0.5,0.8,0.5,1.5
	c0,0.4-0.1,0.8-0.3,1.2c-0.2,0.4-0.5,0.9-1.1,1.5l-0.9,1.3h2.4V111.2z M83.9,108.2c0,1-0.2,1.7-0.5,2.3s-0.9,0.8-1.5,0.8
	c-0.7,0-1.2-0.3-1.5-0.8c-0.4-0.5-0.5-1.2-0.6-2.2V107c0-1,0.2-1.7,0.5-2.2c0.4-0.5,0.9-0.8,1.5-0.8c0.7,0,1.2,0.3,1.5,0.8
	c0.4,0.5,0.5,1.2,0.5,2.2V108.2z M82.5,106.8c0-0.6-0.1-1-0.2-1.3c-0.1-0.3-0.3-0.4-0.5-0.4c-0.4,0-0.7,0.5-0.7,1.5v1.8
	c0,0.6,0.1,1,0.2,1.3c0.1,0.3,0.3,0.4,0.5,0.4c0.2,0,0.4-0.1,0.5-0.4c0.1-0.3,0.2-0.7,0.2-1.2V106.8z M88.9,108.2
	c0,1-0.2,1.7-0.5,2.3s-0.9,0.8-1.5,0.8c-0.7,0-1.2-0.3-1.5-0.8s-0.5-1.2-0.6-2.2V107c0-1,0.2-1.7,0.5-2.2c0.4-0.5,0.9-0.8,1.5-0.8
	c0.7,0,1.2,0.3,1.5,0.8c0.4,0.5,0.5,1.2,0.5,2.2V108.2z M87.5,106.8c0-0.6-0.1-1-0.2-1.3c-0.1-0.3-0.3-0.4-0.5-0.4
	c-0.4,0-0.7,0.5-0.7,1.5v1.8c0,0.6,0.1,1,0.2,1.3c0.1,0.3,0.3,0.4,0.5,0.4c0.2,0,0.4-0.1,0.5-0.4c0.1-0.3,0.2-0.7,0.2-1.2V106.8z
	 M94.6,104.1v4.9c0,0.7-0.2,1.3-0.6,1.7c-0.4,0.4-1,0.6-1.7,0.6c-0.8,0-1.3-0.2-1.7-0.6c-0.4-0.4-0.6-1-0.6-1.7v-4.9h1.4v4.9
	c0,0.4,0.1,0.7,0.2,0.9c0.1,0.2,0.4,0.3,0.7,0.3s0.6-0.1,0.7-0.3s0.2-0.5,0.2-0.8v-4.9H94.6z M98.7,109.3c0-0.3-0.1-0.5-0.2-0.7
	c-0.1-0.1-0.4-0.3-0.8-0.5c-0.7-0.3-1.2-0.6-1.5-0.9c-0.3-0.4-0.5-0.8-0.5-1.3c0-0.6,0.2-1.1,0.6-1.4c0.4-0.4,1-0.5,1.6-0.5
	c0.4,0,0.8,0.1,1.2,0.3c0.3,0.2,0.6,0.4,0.8,0.8c0.2,0.3,0.3,0.7,0.3,1.1h-1.4c0-0.3-0.1-0.6-0.2-0.8c-0.1-0.2-0.3-0.3-0.6-0.3
	c-0.3,0-0.4,0.1-0.6,0.2c-0.1,0.1-0.2,0.3-0.2,0.6c0,0.2,0.1,0.4,0.2,0.5c0.2,0.2,0.4,0.3,0.8,0.5c0.7,0.3,1.2,0.6,1.5,0.9
	c0.3,0.4,0.5,0.8,0.5,1.4c0,0.6-0.2,1.1-0.6,1.5c-0.4,0.3-0.9,0.5-1.6,0.5c-0.5,0-0.9-0.1-1.3-0.3c-0.4-0.2-0.7-0.5-0.9-0.8
	c-0.2-0.4-0.3-0.8-0.3-1.2h1.4c0,0.4,0.1,0.7,0.2,0.9c0.2,0.2,0.4,0.3,0.8,0.3C98.4,110.1,98.7,109.8,98.7,109.3z M101.1,111.2v-7.1
	h1.9c0.8,0,1.5,0.3,2,0.8c0.5,0.5,0.7,1.2,0.8,2.2v1.2c0,0.9-0.2,1.7-0.7,2.2c-0.5,0.5-1.2,0.8-2,0.8H101.1z M102.5,105.3v4.7h0.4
	c0.5,0,0.8-0.1,1-0.4c0.2-0.3,0.3-0.7,0.3-1.3v-1.2c0-0.7-0.1-1.1-0.3-1.4c-0.2-0.3-0.5-0.4-0.9-0.4H102.5z M110.9,105.3h-1.8v5.9
	h-1.4v-5.9H106v-1.2h4.9V105.3z"/>
<path class="st0" d="M130.7,100h50.7c1.6,0,2.2,0.2,2.8,0.5c0.6,0.3,1.1,0.9,1.4,1.5c0.3,0.7,0.5,1.3,0.5,3.1v4.7
	c0,1.8-0.2,2.4-0.5,3.1c-0.3,0.7-0.8,1.2-1.4,1.5c-0.6,0.3-1.2,0.5-2.8,0.5H126v-9.9c0-1.8,0.2-2.4,0.5-3.1c0.3-0.7,0.8-1.2,1.4-1.5
	C128.5,100.2,129,100,130.7,100z"/>
<path id="Shape" class="st1" d="M144.8,111.3h-4.9v-1l2.3-2.5c0.3-0.3,0.5-0.6,0.7-0.9c0.2-0.3,0.2-0.5,0.2-0.7
	c0-0.3-0.1-0.6-0.2-0.7s-0.4-0.3-0.7-0.3c-0.3,0-0.6,0.1-0.8,0.3c-0.2,0.2-0.3,0.5-0.3,0.9h-1.4c0-0.4,0.1-0.8,0.3-1.2
	c0.2-0.4,0.5-0.6,0.9-0.8c0.4-0.2,0.8-0.3,1.3-0.3c0.7,0,1.3,0.2,1.7,0.5c0.4,0.4,0.6,0.8,0.6,1.5c0,0.4-0.1,0.7-0.3,1.1
	c-0.2,0.4-0.5,0.8-0.9,1.3l-1.6,1.7h3.1V111.3z M150.4,108.4c0,1-0.2,1.7-0.6,2.3s-1,0.8-1.8,0.8c-0.8,0-1.4-0.3-1.8-0.8
	s-0.6-1.2-0.6-2.2v-1.3c0-1,0.2-1.7,0.6-2.3c0.4-0.5,1-0.8,1.8-0.8c0.8,0,1.4,0.3,1.8,0.8c0.4,0.5,0.6,1.2,0.6,2.2V108.4z
	 M149,106.9c0-0.6-0.1-1-0.2-1.3c-0.2-0.3-0.4-0.4-0.8-0.4c-0.3,0-0.6,0.1-0.7,0.4c-0.2,0.3-0.2,0.7-0.3,1.2v1.7
	c0,0.6,0.1,1,0.2,1.3c0.2,0.3,0.4,0.4,0.8,0.4c0.3,0,0.6-0.1,0.7-0.4c0.2-0.3,0.2-0.7,0.2-1.2V106.9z M156.1,108.4
	c0,1-0.2,1.7-0.6,2.3s-1,0.8-1.8,0.8c-0.8,0-1.4-0.3-1.8-0.8s-0.6-1.2-0.6-2.2v-1.3c0-1,0.2-1.7,0.6-2.3c0.4-0.5,1-0.8,1.8-0.8
	c0.8,0,1.4,0.3,1.8,0.8c0.4,0.5,0.6,1.2,0.6,2.2V108.4z M154.7,106.9c0-0.6-0.1-1-0.2-1.3c-0.2-0.3-0.4-0.4-0.8-0.4
	c-0.3,0-0.6,0.1-0.7,0.4c-0.2,0.3-0.2,0.7-0.3,1.2v1.7c0,0.6,0.1,1,0.2,1.3c0.2,0.3,0.4,0.4,0.8,0.4c0.3,0,0.6-0.1,0.7-0.4
	c0.2-0.3,0.2-0.7,0.2-1.2V106.9z M162.6,104.2v4.7c0,0.8-0.2,1.4-0.7,1.8c-0.5,0.5-1.2,0.7-2,0.7c-0.8,0-1.5-0.2-2-0.7
	c-0.5-0.4-0.7-1-0.7-1.8v-4.7h1.5v4.7c0,0.5,0.1,0.8,0.3,1c0.2,0.2,0.5,0.3,0.9,0.3c0.8,0,1.2-0.4,1.3-1.3v-4.7H162.6z M167.5,109.4
	c0-0.3-0.1-0.5-0.3-0.6c-0.2-0.1-0.5-0.3-1.1-0.5c-0.5-0.2-0.9-0.3-1.2-0.5c-0.8-0.4-1.2-1-1.2-1.8c0-0.4,0.1-0.7,0.3-1
	c0.2-0.3,0.5-0.5,0.9-0.7c0.4-0.2,0.9-0.3,1.4-0.3c0.5,0,1,0.1,1.4,0.3c0.4,0.2,0.7,0.4,0.9,0.8c0.2,0.3,0.3,0.7,0.3,1.1h-1.5
	c0-0.3-0.1-0.6-0.3-0.8s-0.5-0.3-0.9-0.3c-0.4,0-0.6,0.1-0.8,0.2s-0.3,0.4-0.3,0.6c0,0.2,0.1,0.4,0.3,0.6s0.6,0.3,1,0.4
	c0.8,0.3,1.4,0.6,1.8,0.9c0.4,0.4,0.6,0.8,0.6,1.4c0,0.6-0.2,1.1-0.7,1.4c-0.5,0.3-1.1,0.5-1.9,0.5c-0.5,0-1-0.1-1.5-0.3
	s-0.8-0.5-1-0.8c-0.2-0.3-0.4-0.8-0.4-1.2h1.5c0,0.8,0.5,1.2,1.4,1.2c0.3,0,0.6-0.1,0.8-0.2S167.5,109.7,167.5,109.4z M170,111.3
	v-7.1h2.2c0.6,0,1.2,0.1,1.7,0.4c0.5,0.3,0.9,0.7,1.2,1.2c0.3,0.5,0.4,1.1,0.4,1.8v0.3c0,0.7-0.1,1.2-0.4,1.8
	c-0.3,0.5-0.7,0.9-1.1,1.2c-0.5,0.3-1.1,0.4-1.7,0.4H170z M171.4,105.4v4.7h0.7c0.6,0,1-0.2,1.3-0.6c0.3-0.4,0.5-0.9,0.5-1.6v-0.4
	c0-0.7-0.1-1.3-0.4-1.6c-0.3-0.4-0.7-0.6-1.3-0.6H171.4z M181.4,105.4h-2.2v5.9h-1.5v-5.9h-2.1v-1.2h5.8V105.4z M135.2,103.3
	c0.1,0.3,0.2,0.7,0.3,1.1h0.8c0.1-0.4,0.2-0.8,0.3-1.2l0.9,0.1c-0.1,0.4-0.2,0.7-0.3,1h1v3.4h-4.5v-3.4h0.9c-0.1-0.4-0.2-0.7-0.4-1
	L135.2,103.3z M137.4,107.1v-1.8h-1.1v1.8H137.4z M135.5,107.1v-1.8h-1v1.8H135.5z M135.1,105.5c0.1,0.4,0.2,0.8,0.3,1.2l-0.5,0.1
	c-0.1-0.4-0.2-0.8-0.3-1.2L135.1,105.5z M136.7,105.5l0.6,0.2c-0.1,0.5-0.2,0.9-0.4,1.3l-0.6-0.2
	C136.5,106.4,136.6,105.9,136.7,105.5z M137.8,108.2v3.5H137v-0.3h-2.1v0.3H134v-3.5H137.8z M134.9,110.6h2.1v-0.5h-2.1V110.6z
	 M134.9,109.4h2.1V109h-2.1V109.4z M133.4,103.7v5.7h-0.8v-4.8h-1.4v4.9h-0.8v-5.7H133.4z M132.5,109.7c0.4,0.4,0.8,0.8,1.1,1.2
	l-0.6,0.6c-0.3-0.4-0.6-0.8-1.1-1.3L132.5,109.7z M131.5,104.9h0.7v2.9c0,1.1-0.2,1.9-0.4,2.5c-0.3,0.6-0.7,1-1.3,1.4L130,111
	c0.6-0.3,1-0.7,1.2-1.2c0.2-0.5,0.3-1.2,0.3-2V104.9z"/>
<path class="st2" d="M49.7,76h14.6c2.7,0,3.6,0.3,4.6,0.8c1,0.5,1.7,1.3,2.3,2.3c0.5,1,0.8,1.9,0.8,4.6V90H42v-6.3
	c0-2.7,0.3-3.6,0.8-4.6c0.5-1,1.3-1.7,2.3-2.3C46,76.3,47,76,49.7,76z"/>
<path id="HOT" class="st3" d="M52.7,87h-1.5v-3.1h-2.8V87h-1.5v-7.1h1.5v2.8h2.8v-2.8h1.5V87z M61,83.4c0,1.2-0.3,2.1-0.9,2.7
	s-1.4,1-2.5,1s-1.9-0.3-2.5-1s-0.9-1.5-0.9-2.7s0.3-2.1,0.9-2.7s1.4-0.9,2.5-0.9s1.9,0.3,2.5,0.9C60.7,81.3,61,82.2,61,83.4z
	 M55.8,83.4c0,0.8,0.2,1.4,0.5,1.8s0.8,0.6,1.4,0.6c1.2,0,1.8-0.8,1.8-2.4c0-1.6-0.6-2.4-1.8-2.4c-0.6,0-1.1,0.2-1.4,0.6
	S55.8,82.6,55.8,83.4z M65,87h-1.5v-5.9h-1.9v-1.3h5.4v1.3H65V87z"/>
<path class="st2" d="M89.7,76h50.6c2.7,0,3.6,0.3,4.6,0.8c1,0.5,1.7,1.3,2.3,2.3c0.5,1,0.8,1.9,0.8,4.6V90H82v-6.3
	c0-2.7,0.3-3.6,0.8-4.6c0.5-1,1.3-1.7,2.3-2.3C86,76.3,87,76,89.7,76z"/>
<path class="st4" d="M91.4,86.2c-0.3,0.3-0.6,0.5-1,0.7s-0.8,0.2-1.3,0.2c-0.8,0-1.5-0.3-1.9-0.8s-0.7-1.2-0.7-2.2v-1.3
	c0-1,0.2-1.7,0.6-2.3s1.1-0.8,1.9-0.8c0.8,0,1.4,0.2,1.7,0.6s0.6,1,0.7,1.8H90c0-0.5-0.1-0.8-0.3-0.9S89.3,81,89,81
	c-0.4,0-0.7,0.1-0.8,0.4s-0.3,0.7-0.3,1.4v1.3c0,0.6,0.1,1.1,0.3,1.4s0.5,0.4,1,0.4c0.3,0,0.5-0.1,0.7-0.2l0.1-0.1v-1.3h-1v-1.1h2.4
	V86.2z M93.8,87h-1.4v-5.3h1.4V87z M92.4,80.3c0-0.2,0.1-0.4,0.2-0.5s0.3-0.2,0.5-0.2s0.4,0.1,0.5,0.2s0.2,0.3,0.2,0.5
	c0,0.2-0.1,0.4-0.2,0.5s-0.3,0.2-0.5,0.2s-0.4-0.1-0.5-0.2S92.4,80.6,92.4,80.3z M96.6,85l0.7-3.3h1.4L97.3,87h-1.3l-1.5-5.3h1.4
	L96.6,85z M101.4,87.1c-0.7,0-1.3-0.2-1.7-0.6s-0.6-1-0.6-1.8v-0.4c0-0.8,0.2-1.5,0.5-1.9s0.9-0.7,1.6-0.7c0.7,0,1.2,0.2,1.5,0.6
	s0.5,1.1,0.5,1.9v0.7h-2.7c0,0.4,0.1,0.7,0.3,0.9s0.4,0.3,0.7,0.3c0.5,0,0.8-0.2,1.2-0.5l0.5,0.8c-0.2,0.2-0.4,0.4-0.7,0.6
	S101.8,87.1,101.4,87.1z M100.6,83.9h1.4v-0.1c0-0.3-0.1-0.6-0.2-0.7s-0.3-0.2-0.5-0.2s-0.4,0.1-0.5,0.3S100.6,83.5,100.6,83.9z
	 M110.5,87h-4.2v-1l1.9-2.4c0.2-0.3,0.4-0.6,0.5-0.9s0.2-0.5,0.2-0.7c0-0.3-0.1-0.6-0.2-0.7s-0.3-0.3-0.5-0.3
	c-0.2,0-0.4,0.1-0.5,0.3s-0.2,0.5-0.2,0.9h-1.4c0-0.4,0.1-0.8,0.3-1.2s0.4-0.6,0.8-0.8s0.7-0.3,1.1-0.3c0.6,0,1.1,0.2,1.5,0.5
	s0.5,0.8,0.5,1.5c0,0.4-0.1,0.8-0.3,1.2s-0.5,0.9-1.1,1.5l-0.9,1.3h2.4V87z M115.5,84.1c0,1-0.2,1.7-0.5,2.3s-0.9,0.8-1.5,0.8
	c-0.7,0-1.2-0.3-1.5-0.8s-0.5-1.2-0.6-2.2v-1.3c0-1,0.2-1.7,0.5-2.2s0.9-0.8,1.5-0.8s1.2,0.3,1.5,0.8s0.5,1.2,0.5,2.2V84.1z
	 M114.2,82.6c0-0.6-0.1-1-0.2-1.3c-0.1-0.3-0.3-0.4-0.5-0.4c-0.4,0-0.7,0.5-0.7,1.5v1.8c0,0.6,0.1,1,0.2,1.3s0.3,0.4,0.5,0.4
	c0.2,0,0.4-0.1,0.5-0.4s0.2-0.7,0.2-1.2V82.6z M120.6,84.1c0,1-0.2,1.7-0.5,2.3s-0.9,0.8-1.5,0.8c-0.7,0-1.2-0.3-1.5-0.8
	s-0.5-1.2-0.6-2.2v-1.3c0-1,0.2-1.7,0.5-2.2s0.9-0.8,1.5-0.8s1.2,0.3,1.5,0.8s0.5,1.2,0.5,2.2V84.1z M119.2,82.6
	c0-0.6-0.1-1-0.2-1.3s-0.3-0.4-0.5-0.4c-0.4,0-0.7,0.5-0.7,1.5v1.8c0,0.6,0.1,1,0.2,1.3s0.3,0.4,0.5,0.4c0.2,0,0.4-0.1,0.5-0.4
	s0.2-0.7,0.2-1.2V82.6z M126.3,79.9v4.9c0,0.7-0.2,1.3-0.6,1.7s-1,0.6-1.7,0.6c-0.8,0-1.3-0.2-1.7-0.6s-0.6-1-0.6-1.7v-4.9h1.4v4.9
	c0,0.4,0.1,0.7,0.2,0.9s0.4,0.3,0.7,0.3s0.6-0.1,0.7-0.3s0.2-0.5,0.2-0.8v-4.9H126.3z M130.4,85.1c0-0.3-0.1-0.5-0.2-0.7
	s-0.4-0.3-0.8-0.5c-0.7-0.3-1.2-0.6-1.5-0.9s-0.5-0.8-0.5-1.3c0-0.6,0.2-1.1,0.6-1.4s1-0.5,1.6-0.5c0.4,0,0.8,0.1,1.2,0.3
	s0.6,0.4,0.8,0.8s0.3,0.7,0.3,1.1h-1.4c0-0.3-0.1-0.6-0.2-0.8s-0.3-0.3-0.6-0.3c-0.3,0-0.4,0.1-0.6,0.2s-0.2,0.3-0.2,0.6
	c0,0.2,0.1,0.4,0.2,0.5s0.4,0.3,0.8,0.5c0.7,0.3,1.2,0.6,1.5,0.9s0.5,0.8,0.5,1.4c0,0.6-0.2,1.1-0.6,1.5s-0.9,0.5-1.6,0.5
	c-0.5,0-0.9-0.1-1.3-0.3s-0.7-0.5-0.9-0.8s-0.3-0.8-0.3-1.2h1.4c0,0.4,0.1,0.7,0.2,0.9s0.4,0.3,0.8,0.3
	C130.1,85.9,130.4,85.7,130.4,85.1z M132.7,87v-7.1h1.9c0.8,0,1.5,0.3,2,0.8s0.7,1.2,0.8,2.2V84c0,0.9-0.2,1.7-0.7,2.2
	s-1.2,0.8-2,0.8H132.7z M134.2,81.1v4.7h0.4c0.5,0,0.8-0.1,1-0.4s0.3-0.7,0.3-1.3v-1.2c0-0.7-0.1-1.1-0.3-1.4s-0.5-0.4-0.9-0.4
	H134.2z M142.6,81.1h-1.8V87h-1.4v-5.9h-1.7v-1.2h4.9V81.1z"/>
<path class="st2" d="M165.4,76h45.2c2.6,0,3.5,0.3,4.4,0.8s1.7,1.3,2.2,2.3c0.5,1,0.8,1.9,0.8,4.6V90h-60v-6.3
	c0-2.7,0.3-3.6,0.8-4.6c0.5-1,1.2-1.7,2.2-2.3C161.9,76.3,162.8,76,165.4,76z"/>
<path class="st4" d="M177,87h-4.9v-1l2.3-2.5c0.3-0.3,0.5-0.6,0.7-0.9s0.2-0.5,0.2-0.7c0-0.3-0.1-0.6-0.2-0.7s-0.4-0.3-0.7-0.3
	c-0.3,0-0.6,0.1-0.8,0.3s-0.3,0.5-0.3,0.9H172c0-0.4,0.1-0.8,0.3-1.2s0.5-0.6,0.9-0.8s0.8-0.3,1.3-0.3c0.7,0,1.3,0.2,1.7,0.5
	s0.6,0.8,0.6,1.5c0,0.4-0.1,0.7-0.3,1.1s-0.5,0.8-0.9,1.3l-1.6,1.7h3.1V87z M182.7,84.1c0,1-0.2,1.7-0.6,2.3s-1,0.8-1.8,0.8
	c-0.8,0-1.4-0.3-1.8-0.8s-0.6-1.2-0.6-2.2v-1.3c0-1,0.2-1.7,0.6-2.3s1-0.8,1.8-0.8s1.4,0.3,1.8,0.8s0.6,1.2,0.6,2.2V84.1z
	 M181.3,82.6c0-0.6-0.1-1-0.2-1.3s-0.4-0.4-0.8-0.4c-0.3,0-0.6,0.1-0.7,0.4s-0.2,0.7-0.3,1.2v1.7c0,0.6,0.1,1,0.2,1.3
	s0.4,0.4,0.8,0.4c0.3,0,0.6-0.1,0.7-0.4s0.2-0.7,0.2-1.2V82.6z M188.4,84.1c0,1-0.2,1.7-0.6,2.3s-1,0.8-1.8,0.8
	c-0.8,0-1.4-0.3-1.8-0.8s-0.6-1.2-0.6-2.2v-1.3c0-1,0.2-1.7,0.6-2.3s1-0.8,1.8-0.8s1.4,0.3,1.8,0.8s0.6,1.2,0.6,2.2V84.1z M187,82.6
	c0-0.6-0.1-1-0.2-1.3s-0.4-0.4-0.8-0.4c-0.3,0-0.6,0.1-0.7,0.4S185,82,185,82.5v1.7c0,0.6,0.1,1,0.2,1.3s0.4,0.4,0.8,0.4
	c0.3,0,0.6-0.1,0.7-0.4s0.2-0.7,0.2-1.2V82.6z M194.9,79.9v4.7c0,0.8-0.2,1.4-0.7,1.8s-1.2,0.7-2,0.7c-0.8,0-1.5-0.2-2-0.7
	s-0.7-1-0.7-1.8v-4.7h1.5v4.7c0,0.5,0.1,0.8,0.3,1s0.5,0.3,0.9,0.3c0.8,0,1.2-0.4,1.3-1.3v-4.7H194.9z M199.8,85.1
	c0-0.3-0.1-0.5-0.3-0.6s-0.5-0.3-1.1-0.5s-0.9-0.3-1.2-0.5c-0.8-0.4-1.2-1-1.2-1.8c0-0.4,0.1-0.7,0.3-1s0.5-0.5,0.9-0.7
	s0.9-0.3,1.4-0.3c0.5,0,1,0.1,1.4,0.3s0.7,0.4,0.9,0.8s0.3,0.7,0.3,1.1h-1.5c0-0.3-0.1-0.6-0.3-0.8S199,81,198.6,81
	c-0.4,0-0.6,0.1-0.8,0.2s-0.3,0.4-0.3,0.6c0,0.2,0.1,0.4,0.3,0.6s0.6,0.3,1,0.4c0.8,0.3,1.4,0.6,1.8,0.9s0.6,0.8,0.6,1.4
	c0,0.6-0.2,1.1-0.7,1.4s-1.1,0.5-1.9,0.5c-0.5,0-1-0.1-1.5-0.3s-0.8-0.5-1-0.8s-0.4-0.8-0.4-1.2h1.5c0,0.8,0.5,1.2,1.4,1.2
	c0.3,0,0.6-0.1,0.8-0.2S199.8,85.4,199.8,85.1z M202.2,87v-7.1h2.2c0.6,0,1.2,0.1,1.7,0.4s0.9,0.7,1.2,1.2s0.4,1.1,0.4,1.8v0.3
	c0,0.7-0.1,1.2-0.4,1.8s-0.7,0.9-1.1,1.2s-1.1,0.4-1.7,0.4H202.2z M203.7,81.1v4.7h0.7c0.6,0,1-0.2,1.3-0.6s0.5-0.9,0.5-1.6v-0.4
	c0-0.7-0.1-1.3-0.4-1.6s-0.7-0.6-1.3-0.6H203.7z M213.7,81.1h-2.2V87H210v-5.9h-2.1v-1.2h5.8V81.1z M167.4,79
	c0.1,0.3,0.2,0.7,0.3,1.1h0.8c0.1-0.4,0.2-0.8,0.3-1.2l0.9,0.1c-0.1,0.4-0.2,0.7-0.3,1h1v3.4h-4.5v-3.4h0.9c-0.1-0.4-0.2-0.7-0.4-1
	L167.4,79z M169.6,82.8v-1.8h-1.1v1.8H169.6z M167.8,82.8v-1.8h-1v1.8H167.8z M167.4,81.2c0.1,0.4,0.2,0.8,0.3,1.2l-0.5,0.1
	c-0.1-0.4-0.2-0.8-0.3-1.2L167.4,81.2z M169,81.2l0.6,0.2c-0.1,0.5-0.2,0.9-0.4,1.3l-0.6-0.2C168.8,82.1,168.9,81.6,169,81.2z
	 M170.1,83.9v3.5h-0.9v-0.3h-2.1v0.3h-0.9v-3.5H170.1z M167.2,86.3h2.1v-0.5h-2.1V86.3z M167.2,85.1h2.1v-0.5h-2.1V85.1z
	 M165.6,79.4V85h-0.8v-4.8h-1.4v4.9h-0.8v-5.7H165.6z M164.8,85.4c0.4,0.4,0.8,0.8,1.1,1.2l-0.6,0.6c-0.3-0.4-0.6-0.8-1.1-1.3
	L164.8,85.4z M163.8,80.6h0.7v2.9c0,1.1-0.2,1.9-0.4,2.5c-0.3,0.6-0.7,1-1.3,1.4l-0.5-0.8c0.6-0.3,1-0.7,1.2-1.2
	c0.2-0.5,0.3-1.2,0.3-2V80.6z"/>
<path class="st2" d="M9,76H23c3.1,0,4.3,0.3,5.4,0.9c1.1,0.6,2,1.5,2.6,2.6S32,81.9,32,85v5H0v-5c0-3.1,0.3-4.3,0.9-5.4
	s1.5-2,2.6-2.6C4.7,76.3,5.9,76,9,76z"/>
<path id="NEW" class="st3" d="M11.2,87H9.3l-3.1-5.4h0c0.1,1,0.1,1.6,0.1,2V87H4.9v-7.1h1.9l3.1,5.3h0c0-0.9-0.1-1.6-0.1-2v-3.4h1.4
	V87z M17.1,87H13v-7.1h4.1v1.2h-2.6v1.6H17v1.2h-2.4v1.8h2.6V87z M25.6,87h-1.7l-1-3.8c0-0.1-0.1-0.4-0.2-0.8s-0.1-0.7-0.1-0.8
	c0,0.2-0.1,0.5-0.1,0.8s-0.1,0.7-0.2,0.8l-1,3.7h-1.7l-1.8-7.1h1.5l0.9,3.9c0.2,0.7,0.3,1.3,0.3,1.9c0-0.2,0.1-0.5,0.1-0.9
	s0.1-0.7,0.2-0.9l1-4h1.4l1,4c0,0.2,0.1,0.5,0.2,0.8s0.1,0.7,0.2,0.9c0-0.3,0.1-0.6,0.2-0.9s0.1-0.7,0.2-0.9l0.9-3.9h1.5L25.6,87z"
	/>
<path id="Path" class="st4" d="M113.2,60.9c-0.1,0-0.2-0.1-0.2-0.2l0-13.8c0-0.1,0.1-0.2,0.2-0.2l5,0c1.6,0,4.1,0.9,4.1,3.4
	c0,1.8-0.7,2.5-1.5,3.1c1.5,0.5,2.7,1.1,2.7,3.7c0,2.1-1.6,3.8-4.3,3.8H113.2z M116.4,54.8c-0.1,0-0.2,0.1-0.2,0.2v3.2
	c0,0.1,0.1,0.2,0.2,0.2c3.2,0,3.8-0.3,3.8-1.8S119.6,54.8,116.4,54.8z M116.2,49.6v2.5c0,0.1,0.1,0.2,0.2,0.2c2.6,0,3-0.5,3-1.4
	c0-0.9-0.2-1.4-3-1.4h0C116.3,49.4,116.2,49.5,116.2,49.6z M128,60.9h-2.9c-0.1,0-0.2-0.1-0.2-0.2v-9.7c0-0.1,0.1-0.2,0.2-0.2h2.9
	c0.1,0,0.2,0.1,0.2,0.2v9.7C128.1,60.8,128.1,60.9,128,60.9z M126.5,50L126.5,50c-1.1,0-1.7-0.8-1.7-1.7c0-1,0.7-1.7,1.7-1.7
	c1.1,0,1.7,0.7,1.7,1.7C128.3,49.2,127.6,50,126.5,50z M133.2,51.4c0.7-0.4,1.4-0.7,2.3-0.7c3.5,0,4.9,2.3,4.9,5.2
	c0,2.9-1.4,5.2-4.9,5.2c-0.8,0-1.6-0.3-2.3-0.7v0l-0.8,0.5c0,0-0.1,0-0.1,0h-2.1c-0.1,0-0.2-0.1-0.2-0.2V46.9c0-0.1,0.1-0.2,0.2-0.2
	h2.9c0.1,0,0.2,0.1,0.2,0.2V51.4z M133.2,55.3v1.4c0,0.2,0,0.4,0.1,0.5c0.2,0.8,1,1.4,2,1.4c1.5,0,2.4-1,2.4-2.6
	c0-1.5-0.8-2.6-2.4-2.6c-0.9,0-1.7,0.6-2,1.4C133.2,54.9,133.2,55.1,133.2,55.3z M156.8,53.4l1.8-2.5h3.4l-3.5,5l3.5,5h-3.4
	l-1.8-2.5l-1.8,2.5h-3.4l3.5-5l-3.5-5h3.4L156.8,53.4z"/>
<ellipse id="Oval-4" class="st5" cx="146.7" cy="55.9" rx="5.2" ry="5.2"/>
<path class="st4" d="M149.1,55.2c0.1-0.7-0.4-1.1-1.1-1.3l0.2-0.9l-0.6-0.1l-0.2,0.9c-0.2,0-0.3-0.1-0.5-0.1l0.2-0.9l-0.6-0.1
	l-0.2,0.9c-0.1,0-0.2-0.1-0.4-0.1l0,0l-0.8-0.2l-0.2,0.6c0,0,0.4,0.1,0.4,0.1c0.2,0.1,0.3,0.2,0.3,0.3l-0.3,1.1c0,0,0,0,0.1,0
	c0,0,0,0-0.1,0l-0.4,1.5c0,0.1-0.1,0.2-0.3,0.1c0,0-0.4-0.1-0.4-0.1l-0.3,0.7l0.7,0.2c0.1,0,0.3,0.1,0.4,0.1l-0.2,1l0.6,0.1l0.2-0.9
	c0.2,0,0.3,0.1,0.5,0.1l-0.2,0.9l0.6,0.1l0.2-0.9c1,0.2,1.7,0.1,2-0.8c0.2-0.7,0-1.1-0.5-1.4C148.8,56,149.1,55.8,149.1,55.2
	L149.1,55.2z M147.8,57.1c-0.2,0.7-1.4,0.3-1.8,0.2l0.3-1.3C146.8,56.1,148,56.3,147.8,57.1L147.8,57.1z M148,55.2
	c-0.2,0.6-1.2,0.3-1.5,0.2l0.3-1.1C147.1,54.4,148.2,54.6,148,55.2L148,55.2z"/>
<path id="Combined-Shape" class="st4" d="M103.5,48.4L98,45.3c-0.2,0.2-0.5,0.4-0.9,0.5v6.4c0.8,0.2,1.4,1,1.4,1.9
	c0,0.2,0,0.4-0.1,0.5l5.5,3.2c0.2-0.2,0.5-0.4,0.9-0.5v-6.4c-0.8-0.2-1.4-1-1.4-1.9C103.4,48.8,103.4,48.6,103.5,48.4L103.5,48.4z
	 M105.8,50.8v6.4c0.8,0.2,1.4,1,1.4,1.9c0,1.1-0.9,1.9-1.9,1.9c-0.5,0-1-0.2-1.4-0.6l-5.5,3.2c0,0.2,0.1,0.3,0.1,0.5
	c0,1.1-0.9,1.9-1.9,1.9c-1.1,0-1.9-0.9-1.9-1.9c0-0.2,0-0.4,0.1-0.5l-5.5-3.2c-0.3,0.4-0.8,0.6-1.4,0.6C86.9,61,86,60.1,86,59
	c0-0.9,0.6-1.6,1.4-1.9v-6.4c-0.8-0.2-1.4-1-1.4-1.9c0-1.1,0.9-1.9,1.9-1.9c0.5,0,1,0.2,1.4,0.6l5.5-3.2c0-0.2-0.1-0.3-0.1-0.5
	c0-1.1,0.9-1.9,1.9-1.9c1.1,0,1.9,0.9,1.9,1.9c0,0.2,0,0.4-0.1,0.5l5.5,3.2c0.3-0.4,0.8-0.6,1.4-0.6c1.1,0,1.9,0.9,1.9,1.9
	C107.2,49.9,106.6,50.6,105.8,50.8L105.8,50.8z M103.5,59.6c0-0.2-0.1-0.3-0.1-0.5c0-0.2,0-0.4,0.1-0.5L98,55.3
	c-0.3,0.4-0.8,0.6-1.4,0.6c-0.5,0-1-0.2-1.4-0.6l-5.5,3.2c0,0.2,0.1,0.3,0.1,0.5c0,0.2,0,0.4-0.1,0.5l5.5,3.2
	c0.3-0.4,0.8-0.6,1.4-0.6c0.5,0,1,0.2,1.4,0.6L103.5,59.6L103.5,59.6z M94.8,54.5c0-0.2-0.1-0.3-0.1-0.5c0-0.9,0.6-1.6,1.4-1.9v-6.4
	c-0.3-0.1-0.6-0.3-0.9-0.5l-5.5,3.2c0,0.2,0.1,0.3,0.1,0.5c0,0.9-0.6,1.6-1.4,1.9v6.4c0.3,0.1,0.6,0.3,0.9,0.5L94.8,54.5L94.8,54.5z
	"/>
<path class="st6" d="M27.2,60.9c-0.1,0-0.2-0.1-0.2-0.2L27,47c0-0.1,0.1-0.2,0.2-0.2l5,0c1.6,0,4.1,0.9,4.1,3.4
	c0,1.8-0.7,2.5-1.5,3.1c1.5,0.5,2.7,1.1,2.7,3.7c0,2.1-1.6,3.8-4.3,3.8H27.2z M30.4,54.8c-0.1,0-0.2,0.1-0.2,0.2v3.2
	c0,0.1,0.1,0.2,0.2,0.2c3.2,0,3.8-0.3,3.8-1.8S33.6,54.8,30.4,54.8z M30.2,49.6v2.5c0,0.1,0.1,0.2,0.2,0.2c2.6,0,3-0.5,3-1.4
	c0-0.9-0.2-1.4-3-1.4h0C30.3,49.4,30.2,49.5,30.2,49.6z M42,60.9h-2.9c-0.1,0-0.2-0.1-0.2-0.2v-9.7c0-0.1,0.1-0.2,0.2-0.2H42
	c0.1,0,0.2,0.1,0.2,0.2v9.7C42.1,60.8,42.1,60.9,42,60.9z M40.5,50L40.5,50c-1.1,0-1.7-0.8-1.7-1.7c0-1,0.7-1.7,1.7-1.7
	c1.1,0,1.7,0.7,1.7,1.7C42.3,49.2,41.6,50,40.5,50z M47.2,51.4c0.7-0.4,1.4-0.7,2.3-0.7c3.5,0,4.9,2.3,4.9,5.2
	c0,2.9-1.4,5.2-4.9,5.2c-0.8,0-1.6-0.3-2.3-0.7v0l-0.8,0.5c0,0-0.1,0-0.1,0h-2.1c-0.1,0-0.2-0.1-0.2-0.2V46.9c0-0.1,0.1-0.2,0.2-0.2
	H47c0.1,0,0.2,0.1,0.2,0.2V51.4z M47.2,55.3v1.4c0,0.2,0,0.4,0.1,0.5c0.2,0.8,1,1.4,2,1.4c1.5,0,2.4-1,2.4-2.6
	c0-1.5-0.8-2.6-2.4-2.6c-0.9,0-1.7,0.6-2,1.4C47.2,54.9,47.2,55.1,47.2,55.3z M70.8,53.4l1.8-2.5H76l-3.5,5l3.5,5h-3.4l-1.8-2.5
	l-1.8,2.5h-3.4l3.5-5l-3.5-5h3.4L70.8,53.4z"/>
<ellipse class="st5" cx="60.7" cy="55.9" rx="5.2" ry="5.2"/>
<path class="st4" d="M63.1,55.2c0.1-0.7-0.4-1.1-1.1-1.3l0.2-0.9l-0.6-0.1l-0.2,0.9c-0.2,0-0.3-0.1-0.5-0.1l0.2-0.9l-0.6-0.1
	l-0.2,0.9c-0.1,0-0.2-0.1-0.4-0.1l0,0l-0.8-0.2l-0.2,0.6c0,0,0.4,0.1,0.4,0.1c0.2,0.1,0.3,0.2,0.3,0.3l-0.3,1.1c0,0,0,0,0.1,0
	c0,0,0,0-0.1,0l-0.4,1.5c0,0.1-0.1,0.2-0.3,0.1c0,0-0.4-0.1-0.4-0.1l-0.3,0.7l0.7,0.2c0.1,0,0.3,0.1,0.4,0.1l-0.2,1l0.6,0.1l0.2-0.9
	c0.2,0,0.3,0.1,0.5,0.1L60.1,59l0.6,0.1l0.2-0.9c1,0.2,1.7,0.1,2-0.8c0.2-0.7,0-1.1-0.5-1.4C62.8,56,63.1,55.8,63.1,55.2L63.1,55.2z
	 M61.8,57.1c-0.2,0.7-1.4,0.3-1.8,0.2l0.3-1.3C60.8,56.1,62,56.3,61.8,57.1L61.8,57.1z M62,55.2c-0.2,0.6-1.2,0.3-1.5,0.2l0.3-1.1
	C61.1,54.4,62.2,54.6,62,55.2L62,55.2z"/>
<path class="st6" d="M17.5,48.4L12,45.3c-0.2,0.2-0.5,0.4-0.9,0.5v6.4c0.8,0.2,1.4,1,1.4,1.9c0,0.2,0,0.4-0.1,0.5l5.5,3.2
	c0.2-0.2,0.5-0.4,0.9-0.5v-6.4c-0.8-0.2-1.4-1-1.4-1.9C17.4,48.8,17.4,48.6,17.5,48.4L17.5,48.4z M19.8,50.8v6.4
	c0.8,0.2,1.4,1,1.4,1.9c0,1.1-0.9,1.9-1.9,1.9c-0.5,0-1-0.2-1.4-0.6l-5.5,3.2c0,0.2,0.1,0.3,0.1,0.5c0,1.1-0.9,1.9-1.9,1.9
	s-1.9-0.9-1.9-1.9c0-0.2,0-0.4,0.1-0.5l-5.5-3.2C2.9,60.7,2.5,61,1.9,61C0.9,61,0,60.1,0,59c0-0.9,0.6-1.6,1.4-1.9v-6.4
	C0.6,50.6,0,49.9,0,49C0,47.9,0.9,47,1.9,47c0.5,0,1,0.2,1.4,0.6l5.5-3.2c0-0.2-0.1-0.3-0.1-0.5c0-1.1,0.9-1.9,1.9-1.9
	s1.9,0.9,1.9,1.9c0,0.2,0,0.4-0.1,0.5l5.5,3.2c0.3-0.4,0.8-0.6,1.4-0.6c1.1,0,1.9,0.9,1.9,1.9C21.2,49.9,20.6,50.6,19.8,50.8
	L19.8,50.8z M17.5,59.6c0-0.2-0.1-0.3-0.1-0.5c0-0.2,0-0.4,0.1-0.5L12,55.3c-0.3,0.4-0.8,0.6-1.4,0.6c-0.5,0-1-0.2-1.4-0.6l-5.5,3.2
	c0,0.2,0.1,0.3,0.1,0.5c0,0.2,0,0.4-0.1,0.5l5.5,3.2c0.3-0.4,0.8-0.6,1.4-0.6c0.5,0,1,0.2,1.4,0.6L17.5,59.6L17.5,59.6z M8.8,54.5
	c0-0.2-0.1-0.3-0.1-0.5c0-0.9,0.6-1.6,1.4-1.9v-6.4c-0.3-0.1-0.6-0.3-0.9-0.5l-5.5,3.2c0,0.2,0.1,0.3,0.1,0.5c0,0.9-0.6,1.6-1.4,1.9
	v6.4c0.3,0.1,0.6,0.3,0.9,0.5L8.8,54.5L8.8,54.5z"/>
<path class="st4" d="M151.2,25.2c-0.1,0-0.2-0.1-0.2-0.2l0-18.3c0-0.1,0.1-0.2,0.2-0.2l6.8,0c2.3,0,5.6,1.2,5.6,4.6
	c0,2.5-1,3.4-2.1,4.2c2.1,0.6,3.7,1.5,3.7,4.9c0,2.8-2.2,5.1-5.8,5.1H151.2z M155.5,17.1c-0.1,0-0.2,0.1-0.2,0.2v4.3
	c0,0.1,0.1,0.2,0.2,0.2c4.4,0,5.2-0.4,5.2-2.3S160,17.1,155.5,17.1z M155.3,10.1v3.4c0,0.1,0.1,0.2,0.2,0.2c3.5,0,4.1-0.7,4.1-1.9
	s-0.3-1.9-4-1.9h-0.1C155.4,9.9,155.3,10,155.3,10.1z M171.4,25.2h-3.9c-0.1,0-0.2-0.1-0.2-0.2V12.1c0-0.1,0.1-0.2,0.2-0.2h3.9
	c0.1,0,0.2,0.1,0.2,0.2V25C171.7,25.1,171.6,25.2,171.4,25.2z M169.5,10.6L169.5,10.6c-1.4,0-2.3-1-2.3-2.3c0-1.3,0.9-2.3,2.3-2.3
	c1.4,0,2.3,1,2.3,2.3C171.8,9.6,170.9,10.6,169.5,10.6z M178.6,12.6c0.9-0.6,2-1,3.1-1c4.7,0,6.7,3.1,6.7,6.9s-2,6.9-6.7,6.9
	c-1.1,0-2.2-0.4-3.1-1v0l-1.2,0.7c0,0-0.1,0-0.1,0h-2.9c-0.1,0-0.2-0.1-0.2-0.2V6.6c0-0.1,0.1-0.2,0.2-0.2h3.9
	c0.1,0,0.2,0.1,0.2,0.2V12.6z M178.6,17.7v1.8c0,0.3,0,0.5,0.1,0.7c0.3,1,1.4,1.9,2.7,1.9c2,0,3.2-1.3,3.2-3.5c0-2-1-3.5-3.2-3.5
	c-1.2,0-2.4,0.8-2.7,1.9C178.6,17.2,178.6,17.4,178.6,17.7z M210.9,15.3l2.4-3.4h4.7l-4.8,6.7l4.8,6.7h-4.7l-2.4-3.4l-2.4,3.4h-4.7
	l4.8-6.7l-4.8-6.7h4.7L210.9,15.3z"/>
<ellipse class="st5" cx="197.1" cy="18.6" rx="7.1" ry="6.9"/>
<path class="st4" d="M200.4,17.7c0.1-0.9-0.6-1.4-1.6-1.8l0.3-1.3l-0.8-0.2l-0.3,1.2c-0.2,0-0.4-0.1-0.6-0.1l0.3-1.2l-0.8-0.2
	l-0.3,1.3c-0.2,0-0.3-0.1-0.5-0.1l0,0l-1.1-0.3l-0.2,0.8c0,0,0.6,0.1,0.6,0.1c0.3,0.1,0.4,0.3,0.4,0.4l-0.4,1.4c0,0,0.1,0,0.1,0
	c0,0-0.1,0-0.1,0l-0.5,2c0,0.1-0.1,0.2-0.4,0.2c0,0-0.6-0.1-0.6-0.1l-0.4,0.9l1,0.2c0.2,0,0.4,0.1,0.6,0.1l-0.3,1.3l0.8,0.2l0.3-1.3
	c0.2,0.1,0.4,0.1,0.6,0.2l-0.3,1.2l0.8,0.2l0.3-1.3c1.3,0.2,2.3,0.1,2.8-1c0.3-0.9,0-1.5-0.7-1.9C199.9,18.7,200.3,18.3,200.4,17.7
	L200.4,17.7z M198.6,20.1c-0.2,0.9-1.9,0.4-2.4,0.3l0.4-1.7C197.2,18.9,198.9,19.1,198.6,20.1L198.6,20.1z M198.9,17.6
	c-0.2,0.9-1.6,0.4-2,0.3l0.4-1.5C197.7,16.5,199.1,16.7,198.9,17.6L198.9,17.6z"/>
<path class="st4" d="M137.9,8.6l-7.5-4.2c-0.3,0.3-0.7,0.6-1.2,0.7v8.5c1.1,0.3,2,1.3,2,2.5c0,0.2,0,0.5-0.1,0.7l7.5,4.2
	c0.3-0.3,0.7-0.6,1.2-0.7v-8.5c-1.1-0.3-2-1.3-2-2.5C137.8,9,137.9,8.8,137.9,8.6L137.9,8.6z M141.1,11.8v8.5c1.1,0.3,2,1.3,2,2.5
	c0,1.4-1.2,2.6-2.6,2.6c-0.7,0-1.4-0.3-1.9-0.8l-7.5,4.2c0.1,0.2,0.1,0.4,0.1,0.7c0,1.4-1.2,2.6-2.6,2.6c-1.4,0-2.6-1.1-2.6-2.6
	c0-0.2,0-0.5,0.1-0.7l-7.5-4.2c-0.5,0.5-1.1,0.8-1.9,0.8c-1.4,0-2.6-1.1-2.6-2.6c0-1.2,0.8-2.2,2-2.5v-8.5c-1.1-0.3-2-1.3-2-2.5
	c0-1.4,1.2-2.6,2.6-2.6c0.7,0,1.4,0.3,1.9,0.8l7.5-4.2c-0.1-0.2-0.1-0.4-0.1-0.7c0-1.4,1.2-2.6,2.6-2.6c1.4,0,2.6,1.1,2.6,2.6
	c0,0.2,0,0.5-0.1,0.7l7.5,4.2c0.5-0.5,1.1-0.8,1.9-0.8c1.4,0,2.6,1.1,2.6,2.6C143.1,10.5,142.2,11.5,141.1,11.8L141.1,11.8z
	 M137.9,23.4c-0.1-0.2-0.1-0.4-0.1-0.7c0-0.2,0-0.5,0.1-0.7l-7.5-4.2c-0.5,0.5-1.1,0.8-1.9,0.8s-1.4-0.3-1.9-0.8l-7.5,4.2
	c0.1,0.2,0.1,0.4,0.1,0.7c0,0.2,0,0.5-0.1,0.7l7.5,4.2c0.5-0.5,1.1-0.8,1.9-0.8s1.4,0.3,1.9,0.8L137.9,23.4L137.9,23.4z M126,16.7
	c-0.1-0.2-0.1-0.4-0.1-0.7c0-1.2,0.8-2.2,2-2.5V5c-0.5-0.1-0.9-0.4-1.2-0.7l-7.5,4.2c0.1,0.2,0.1,0.4,0.1,0.7c0,1.2-0.8,2.2-2,2.5
	v8.5c0.5,0.1,0.9,0.4,1.2,0.7L126,16.7L126,16.7z"/>
<path class="st6" d="M37.2,25.2c-0.1,0-0.2-0.1-0.2-0.2l0-18.3c0-0.1,0.1-0.2,0.2-0.2l6.8,0c2.3,0,5.6,1.2,5.6,4.6
	c0,2.5-1,3.4-2.1,4.2c2.1,0.6,3.7,1.5,3.7,4.9c0,2.8-2.2,5.1-5.8,5.1H37.2z M41.5,17.1c-0.1,0-0.2,0.1-0.2,0.2v4.3
	c0,0.1,0.1,0.2,0.2,0.2c4.4,0,5.2-0.4,5.2-2.3S46,17.1,41.5,17.1z M41.3,10.1v3.4c0,0.1,0.1,0.2,0.2,0.2c3.5,0,4.1-0.7,4.1-1.9
	s-0.3-1.9-4-1.9h-0.1C41.4,9.9,41.3,10,41.3,10.1z M57.4,25.2h-3.9c-0.1,0-0.2-0.1-0.2-0.2V12.1c0-0.1,0.1-0.2,0.2-0.2h3.9
	c0.1,0,0.2,0.1,0.2,0.2V25C57.7,25.1,57.6,25.2,57.4,25.2z M55.5,10.6L55.5,10.6c-1.4,0-2.3-1-2.3-2.3C53.1,7,54.1,6,55.5,6
	c1.4,0,2.3,1,2.3,2.3C57.8,9.6,56.9,10.6,55.5,10.6z M64.6,12.6c0.9-0.6,2-1,3.1-1c4.7,0,6.7,3.1,6.7,6.9s-2,6.9-6.7,6.9
	c-1.1,0-2.2-0.4-3.1-1v0l-1.2,0.7c0,0-0.1,0-0.1,0h-2.9c-0.1,0-0.2-0.1-0.2-0.2V6.6c0-0.1,0.1-0.2,0.2-0.2h3.9
	c0.1,0,0.2,0.1,0.2,0.2V12.6z M64.6,17.7v1.8c0,0.3,0,0.5,0.1,0.7c0.3,1,1.4,1.9,2.7,1.9c2,0,3.2-1.3,3.2-3.5c0-2-1-3.5-3.2-3.5
	c-1.2,0-2.4,0.8-2.7,1.9C64.6,17.2,64.6,17.4,64.6,17.7z M96.9,15.3l2.4-3.4h4.7l-4.8,6.7l4.8,6.7h-4.7l-2.4-3.4l-2.4,3.4h-4.7
	l4.8-6.7l-4.8-6.7h4.7L96.9,15.3z"/>
<ellipse class="st5" cx="83.1" cy="18.6" rx="7.1" ry="6.9"/>
<path class="st4" d="M86.4,17.7c0.1-0.9-0.6-1.4-1.6-1.8l0.3-1.3l-0.8-0.2l-0.3,1.2c-0.2,0-0.4-0.1-0.6-0.1l0.3-1.2L83,14.1
	l-0.3,1.3c-0.2,0-0.3-0.1-0.5-0.1l0,0L81.1,15l-0.2,0.8c0,0,0.6,0.1,0.6,0.1c0.3,0.1,0.4,0.3,0.4,0.4l-0.4,1.4c0,0,0.1,0,0.1,0
	c0,0-0.1,0-0.1,0l-0.5,2c0,0.1-0.1,0.2-0.4,0.2c0,0-0.6-0.1-0.6-0.1l-0.4,0.9l1,0.2c0.2,0,0.4,0.1,0.6,0.1l-0.3,1.3l0.8,0.2l0.3-1.3
	c0.2,0.1,0.4,0.1,0.6,0.2l-0.3,1.2l0.8,0.2l0.3-1.3c1.3,0.2,2.3,0.1,2.8-1c0.3-0.9,0-1.5-0.7-1.9C85.9,18.7,86.3,18.3,86.4,17.7
	L86.4,17.7z M84.6,20.1c-0.2,0.9-1.9,0.4-2.4,0.3l0.4-1.7C83.2,18.9,84.9,19.1,84.6,20.1L84.6,20.1z M84.9,17.6
	c-0.2,0.9-1.6,0.4-2,0.3l0.4-1.5C83.7,16.5,85.1,16.7,84.9,17.6L84.9,17.6z"/>
<path class="st6" d="M23.9,8.6l-7.5-4.2c-0.3,0.3-0.7,0.6-1.2,0.7v8.5c1.1,0.3,2,1.3,2,2.5c0,0.2,0,0.5-0.1,0.7l7.5,4.2
	c0.3-0.3,0.7-0.6,1.2-0.7v-8.5c-1.1-0.3-2-1.3-2-2.5C23.8,9,23.9,8.8,23.9,8.6L23.9,8.6z M27.1,11.8v8.5c1.1,0.3,2,1.3,2,2.5
	c0,1.4-1.2,2.6-2.6,2.6c-0.7,0-1.4-0.3-1.9-0.8l-7.5,4.2c0.1,0.2,0.1,0.4,0.1,0.7c0,1.4-1.2,2.6-2.6,2.6s-2.6-1.1-2.6-2.6
	c0-0.2,0-0.5,0.1-0.7l-7.5-4.2C4,25,3.4,25.3,2.6,25.3c-1.4,0-2.6-1.1-2.6-2.6c0-1.2,0.8-2.2,2-2.5v-8.5c-1.1-0.3-2-1.3-2-2.5
	c0-1.4,1.2-2.6,2.6-2.6C3.4,6.7,4,7,4.5,7.5L12,3.2c-0.1-0.2-0.1-0.4-0.1-0.7c0-1.4,1.2-2.6,2.6-2.6s2.6,1.1,2.6,2.6
	c0,0.2,0,0.5-0.1,0.7l7.5,4.2c0.5-0.5,1.1-0.8,1.9-0.8c1.4,0,2.6,1.1,2.6,2.6C29.1,10.5,28.2,11.5,27.1,11.8L27.1,11.8z M23.9,23.4
	c-0.1-0.2-0.1-0.4-0.1-0.7c0-0.2,0-0.5,0.1-0.7l-7.5-4.2c-0.5,0.5-1.1,0.8-1.9,0.8c-0.7,0-1.4-0.3-1.9-0.8L5.2,22
	c0.1,0.2,0.1,0.4,0.1,0.7c0,0.2,0,0.5-0.1,0.7l7.5,4.2c0.5-0.5,1.1-0.8,1.9-0.8c0.7,0,1.4,0.3,1.9,0.8L23.9,23.4L23.9,23.4z
	 M12,16.7c-0.1-0.2-0.1-0.4-0.1-0.7c0-1.2,0.8-2.2,2-2.5V5c-0.5-0.1-0.9-0.4-1.2-0.7L5.2,8.6C5.2,8.8,5.2,9,5.2,9.3
	c0,1.2-0.8,2.2-2,2.5v8.5c0.5,0.1,0.9,0.4,1.2,0.7L12,16.7L12,16.7z"/>
</svg>
