<?xml version="1.0" standalone="no"?><!DOCTYPE svg PUBLIC "-//W3C//DTD SVG 1.1//EN" "http://www.w3.org/Graphics/SVG/1.1/DTD/svg11.dtd"><svg t="1567158722191" class="icon" viewBox="0 0 1024 1024" version="1.1" xmlns="http://www.w3.org/2000/svg" p-id="2206" xmlns:xlink="http://www.w3.org/1999/xlink" width="200" height="200"><defs><style type="text/css"></style></defs><path d="M512 1024C229.23264 1024 0 794.76736 0 512S229.23264 0 512 0s512 229.23264 512 512-229.23264 512-512 512z m0-46.8992c256.86016 0 465.1008-208.24064 465.1008-465.1008C977.1008 255.13984 768.86016 46.8992 512 46.8992 255.13984 46.8992 46.8992 255.13984 46.8992 512c0 256.86016 208.24064 465.1008 465.1008 465.1008z m209.67424-585.58464L523.4688 278.9376a16.34304 16.34304 0 0 0-16.34304 0.04096L309.0432 391.5776a15.99488 15.99488 0 0 0-8.13056 13.86496v225.25952c0 5.7344 3.11296 10.97728 8.13056 13.88544l198.18496 112.64a16.75264 16.75264 0 0 0 16.34304-0.04096l198.12352-112.59904a15.99488 15.99488 0 0 0 8.13056-13.88544v-225.28a15.9744 15.9744 0 0 0-8.04864-13.84448l-0.08192-0.04096z m-24.39168 229.94944l-181.94432 103.38304-181.92384-103.38304V414.65856l181.92384-103.40352 181.94432 103.40352V621.4656z m-321.82272-191.75424a16.22016 16.22016 0 0 0 5.87776 22.20032l112.92672 65.39264v129.2288a16.1792 16.1792 0 0 0 16.34304 16.26112 16.1792 16.1792 0 0 0 16.09728-16.26112v-129.024l113.2544-65.61792a16.2816 16.2816 0 0 0-16.2816-28.13952l-113.00864 65.39264-113.0496-65.4336a16.30208 16.30208 0 0 0-22.1184 5.9392l-0.04096 0.06144z" fill="#579AFF" p-id="2207"></path></svg>