<?xml version="1.0" standalone="no"?><!DOCTYPE svg PUBLIC "-//W3C//DTD SVG 1.1//EN" "http://www.w3.org/Graphics/SVG/1.1/DTD/svg11.dtd"><svg t="1567149200118" class="icon" viewBox="0 0 1024 1024" version="1.1" xmlns="http://www.w3.org/2000/svg" p-id="2145" xmlns:xlink="http://www.w3.org/1999/xlink" width="200" height="200"><defs><style type="text/css"></style></defs><path d="M200 128h440c28.4672 0 39.1328 42.6672 32 128 106.6672 3.5552 160 24.8896 160 64v504c0 39.7648-32.2352 72-72 72H200c-39.7648 0-72-32.2352-72-72V200c0-39.7648 32.2352-72 72-72z" fill="#70A9FF" p-id="2146"></path><path d="M275.2 339.2h217.6c10.6032 0 19.2 8.5968 19.2 19.2s-8.5968 19.2-19.2 19.2H275.2c-10.6032 0-19.2-8.5968-19.2-19.2s8.5968-19.2 19.2-19.2z m0 76.8h409.6c10.6032 0 19.2 8.5968 19.2 19.2s-8.5968 19.2-19.2 19.2H275.2c-10.6032 0-19.2-8.5968-19.2-19.2s8.5968-19.2 19.2-19.2z m0 76.8h409.6c10.6032 0 19.2 8.5968 19.2 19.2s-8.5968 19.2-19.2 19.2H275.2c-10.6032 0-19.2-8.5968-19.2-19.2s8.5968-19.2 19.2-19.2z m0 76.8h409.6c10.6032 0 19.2 8.5968 19.2 19.2s-8.5968 19.2-19.2 19.2H275.2c-10.6032 0-19.2-8.5968-19.2-19.2s8.5968-19.2 19.2-19.2z m0 76.8h409.6c10.6032 0 19.2 8.5968 19.2 19.2s-8.5968 19.2-19.2 19.2H275.2c-10.6032 0-19.2-8.5968-19.2-19.2s8.5968-19.2 19.2-19.2z" fill="#C2EBFF" p-id="2147"></path><path d="M800 800m-224 0a224 224 0 1 0 448 0 224 224 0 1 0-448 0Z" fill="#70A9FF" p-id="2148"></path><path d="M696.2512 807.2832a10.9664 10.9664 0 0 1-0.656-11.0736l8.736-17.1472a10.9664 10.9664 0 0 1 17.5248-2.776l44.1568 44.1568 118.2528-118.8896 0.0256-0.024a13.0496 13.0496 0 0 1 18.4544 0l0.9728 0.9712a13.7072 13.7072 0 0 1 1.3952 17.7536l-125.232 172.2688a16.448 16.448 0 0 1-4.1616 4c-7.552 5.0512-17.768 3.024-22.8176-4.528l-56.6512-84.712z" fill="#C2EBFF" p-id="2149"></path></svg>