<?xml version="1.0" standalone="no"?><!DOCTYPE svg PUBLIC "-//W3C//DTD SVG 1.1//EN" "http://www.w3.org/Graphics/SVG/1.1/DTD/svg11.dtd"><svg t="1567148414365" class="icon" viewBox="0 0 1024 1024" version="1.1" xmlns="http://www.w3.org/2000/svg" p-id="11673" xmlns:xlink="http://www.w3.org/1999/xlink" width="200" height="200"><defs><style type="text/css"></style></defs><path d="M768 0l-90.992 591.44c-2.88 18.7312-18.9984 32.56-37.952 32.56H42.4448c-14.1392 0-25.6-11.4608-25.6-25.6a25.6 25.6 0 0 1 9.856-20.1856L768 0z" fill="#579AFF" p-id="11674"></path><path d="M256 1024l90.992-591.44c2.88-18.7312 18.9984-32.56 37.952-32.56h596.6112c14.1392 0 25.6 11.4608 25.6 25.6a25.6 25.6 0 0 1-9.856 20.1856L256 1024z" fill="#579AFF" p-id="11675"></path><path d="M706.4624 400L677.008 591.44C674.128 610.1696 658.0096 624 639.056 624H317.5392l29.4512-191.44C349.872 413.8304 365.9904 400 384.944 400H706.464z" fill="#B8E7FF" p-id="11676"></path><path d="M698.584 451.2l-9.8464 64H334.2768l9.8464-64h354.4608z" fill="#174EE6" p-id="11677"></path></svg>