<?xml version="1.0" standalone="no"?><!DOCTYPE svg PUBLIC "-//W3C//DTD SVG 1.1//EN" "http://www.w3.org/Graphics/SVG/1.1/DTD/svg11.dtd"><svg t="1567148450099" class="icon" viewBox="0 0 1024 1024" version="1.1" xmlns="http://www.w3.org/2000/svg" p-id="11802" xmlns:xlink="http://www.w3.org/1999/xlink" width="200" height="200"><defs><style type="text/css"></style></defs><path d="M513.6 510.4m-448 0a448 448 0 1 0 896 0 448 448 0 1 0-896 0Z" fill="#659AEA" p-id="11803"></path><path d="M790.4 624V385.6a35.952 35.952 0 1 0-39.28-53.904L546.528 216.96a35.776 35.776 0 0 0-33.952-47.52 35.808 35.808 0 0 0-34.272 46.56l-204.976 114.096a35.904 35.904 0 1 0-36.704 55.744v237.712a36.016 36.016 0 1 0 33.2 60.304l209.248 120.768a36.976 36.976 0 0 0-1.984 11.568 35.936 35.936 0 1 0 71.872 0A35.2 35.2 0 0 0 547.2 804.8l208.88-120.64A35.952 35.952 0 0 0 817.6 658.88a36.4 36.4 0 0 0-27.2-34.88z m-44.528-278.208c-0.144 1.6-0.304 3.2-0.304 4.8a36.016 36.016 0 0 0 30.16 35.488v237.328a35.104 35.104 0 0 0-20.112 10.656l-204.064-130.96a41.088 41.088 0 0 0 3.648-17.36 42.144 42.144 0 0 0-35.792-41.6V240.864a36.224 36.224 0 0 0 19.488-10.96z m-260.56-116.8a35.648 35.648 0 0 0 19.488 11.584v203.888a42.032 42.032 0 0 0-33.808 41.28 40 40 0 0 0 3.504 16.656l-203.2 132.944a35.792 35.792 0 0 0-19.792-11.728V385.84a35.952 35.952 0 0 0 28.624-35.2 52.368 52.368 0 0 0-0.608-7.008zM539.52 792a35.952 35.952 0 0 0-53.12 0l-208.8-120.624a38.176 38.176 0 0 0 2.272-12.496 39.792 39.792 0 0 0-1.52-10.496l204.224-133.552a42.128 42.128 0 0 0 60.8 0.608l204.672 131.2a36.224 36.224 0 0 0 0.304 25.28z" fill="#FFFFFF" p-id="11804"></path></svg>