<?xml version="1.0" standalone="no"?><!DOCTYPE svg PUBLIC "-//W3C//DTD SVG 1.1//EN" "http://www.w3.org/Graphics/SVG/1.1/DTD/svg11.dtd"><svg t="1567148284991" class="icon" viewBox="0 0 1024 1024" version="1.1" xmlns="http://www.w3.org/2000/svg" p-id="11407" xmlns:xlink="http://www.w3.org/1999/xlink" width="200" height="200"><defs><style type="text/css"></style></defs><path d="M113.2016 958.9648h76.1344a12.496 12.496 0 0 0 8.8048-3.6256l235.136-235.136c5.1792-5.1792 5.1792-12.9472 0-18.128L253.04 521.84c-5.1792-5.1792-5.1792-12.9472 0-18.128l106.6912-106.6896 127.408-127.408 173.504-173.504c0.5168-0.5168 1.0352-1.552 0.5168-2.5888 0-1.0368-1.0352-1.5536-1.552-2.072-46.096-16.056-95.2976-24.8608-146.5728-24.8608H113.2016c-25.376 0-45.576 20.7168-45.576 45.5776v801.2208c0 25.3776 20.7168 45.5776 45.576 45.5776z" fill="#4772ED" p-id="11408"></path><path d="M733.6688 126.6688c-5.1792-3.1088-11.3936-2.072-15.536 2.0704L541.0016 305.8688c-5.1792 5.1792-5.1792 12.9472 0 18.128l180.2368 180.2352c5.1792 5.1792 5.1792 12.9472 0 18.1264l-105.656 105.656-128.4448 128.4432-198.3616 198.3632c-0.5184 0.5184-1.0368 2.072-0.5184 2.5904 0.5184 0.5168 1.552 1.552 2.5888 1.552h222.1872c244.976 0 445.4112-200.4336 445.4112-445.408 0-164.6992-90.6352-309.7168-224.7776-386.8864z" fill="#4772ED" p-id="11409"></path><path d="M495.944 657.536c-5.1792 5.1792-12.9472 5.1792-18.128 0l-135.176-135.1776c-5.1792-5.1792-5.1792-12.9472 0-18.128l135.1776-135.176c5.1792-5.1792 12.9472-5.1792 18.128 0l135.176 135.1776c5.1792 5.1792 5.1792 12.9472 0 18.1264l-135.1776 135.1776z" fill="#4772ED" p-id="11410"></path></svg>