<?xml version="1.0" standalone="no"?><!DOCTYPE svg PUBLIC "-//W3C//DTD SVG 1.1//EN" "http://www.w3.org/Graphics/SVG/1.1/DTD/svg11.dtd"><svg t="1567145734921" class="icon" viewBox="0 0 1024 1024" version="1.1" xmlns="http://www.w3.org/2000/svg" p-id="1973" xmlns:xlink="http://www.w3.org/1999/xlink" width="200" height="200"><defs><style type="text/css"></style></defs><path d="M448.0008 512m-448 0a448 448 0 1 0 896 0 448 448 0 1 0-896 0Z" fill="#B8E7FF" p-id="1974"></path><path d="M0.5512 534.4a455.4272 455.4272 0 0 1 0-44.8h99.3344L158.2408 450.696c10.64-7.0944 25.0528-3.8544 31.632 7.112l44.048 73.4112 87.8304-158.0976c9.4656-17.0384 34.6688-14.696 40.832 3.7952l62.96 188.8752 43.6672-145.5616c5.8288-19.4304 32.4192-21.7248 41.4912-3.5808L547.1784 489.6H640.0008c12.3712 0 22.4 10.0288 22.4 22.4s-10.0288 22.4-22.4 22.4h-106.6672a22.4 22.4 0 0 1-20.0352-12.3824l-17.4064-34.8128-47.7696 159.232c-6.2848 20.9504-35.7888 21.3968-42.704 0.6464l-69.232-207.6928-81.9376 147.488c-8.3728 15.072-29.92 15.4304-38.7888 0.6464l-51.9136-86.5232-44.4544 29.6368A22.4 22.4 0 0 1 106.668 534.4H0.5512z" fill="#70A9FF" p-id="1975"></path><path d="M810.668 512m-213.3328 0a213.3328 213.3328 0 1 0 426.6656 0 213.3328 213.3328 0 1 0-426.6656 0Z" fill="#174EE6" p-id="1976"></path><path d="M705.852 516.0832a10.9664 10.9664 0 0 1-0.656-11.0736l8.736-17.1472a10.9664 10.9664 0 0 1 17.5248-2.776l44.1568 44.1568 118.2528-118.8896 0.0256-0.024a13.0496 13.0496 0 0 1 18.4544 0l0.9728 0.9712a13.7072 13.7072 0 0 1 1.3952 17.7536l-125.232 172.2688a16.448 16.448 0 0 1-4.1616 4c-7.552 5.0512-17.768 3.024-22.8176-4.528l-56.6512-84.712z" fill="#C2EBFF" p-id="1977"></path></svg>