<?xml version="1.0" encoding="UTF-8"?>
<svg width="1200px" height="360px" viewBox="0 0 1200 360" version="1.1" xmlns="http://www.w3.org/2000/svg" xmlns:xlink="http://www.w3.org/1999/xlink">
    <!-- Generator: Sketch 55 (78076) - https://sketchapp.com -->
    <title>pic-new-user-human</title>
    <desc>Created with Sketch.</desc>
    <defs>
        <rect id="path-1" x="0" y="0" width="1440" height="360"></rect>
    </defs>
    <g id="Homepage" stroke="none" stroke-width="1" fill="none" fill-rule="evenodd">
        <g id="LandingPage--UserGuide-Order" transform="translate(-120.000000, -2105.000000)">
            <g id="Part3" transform="translate(0.000000, 2105.000000)">
                <g id="Group-2">
                    <mask id="mask-2" fill="white">
                        <use xlink:href="#path-1"></use>
                    </mask>
                    <g id="Mask"></g>
                    <g mask="url(#mask-2)">
                        <g transform="translate(1028.000000, 103.000000)">
                            <g id="Head" transform="translate(139.500000, 42.500000) scale(-1, 1) translate(-139.500000, -42.500000) translate(76.000000, 0.000000)">
                                <path d="M101.084529,55.539947 C97.5449855,51.4022525 95.1493485,46.331451 95.5496609,40.6494722 C96.7030722,24.2781093 119.586271,27.8796005 124.037526,36.1424587 C128.488782,44.4053168 127.959857,65.3647418 122.207006,66.841545 C119.912776,67.4304921 115.025386,65.9878076 110.051163,63.0018941 L113.173387,85 L94.7379032,85 L101.084529,55.539947 Z" fill="#F0C2A3"></path>
                                <path d="M113.529768,26.6192214 C111.100025,26.2224014 104.557833,25.9495767 103.351336,25.9497528 C102.580328,25.9497528 101.74479,26.1251779 101.288144,25.4201311 C100.914188,24.8427783 101.051182,23.8663158 100.939577,23.1963188 C100.809988,22.4180021 100.625919,21.6497248 100.439735,20.8833849 C99.9099199,18.7027243 99.1087622,16.6280937 97.9877762,14.6802765 C95.8843847,11.0259396 92.8029954,8.16348131 88.9128671,6.49782369 C84.6170469,4.65867841 79.7559732,4.23755253 75.1352117,4.61059503 C70.1903903,5.0097047 65.7142038,6.6353809 61.0454856,8.16524261 C56.5964511,9.6230673 51.9365484,10.1968975 47.2833456,9.4849817 C42.5950569,8.76778197 39.0526141,6.23715188 35.0981322,3.83527253 C31.0498528,1.37632719 26.4234492,-0.23191219 21.6376605,0.13778384 C17.1702896,0.482997856 13.0528962,2.32002958 9.35882583,4.77404329 C5.90259914,7.07006876 3.05076693,9.8324854 1.44069388,13.7203702 C-0.291386468,17.9025675 -0.289799668,22.4932094 2.55850631,26.1892891 C6.68700727,31.5467992 14.3514275,32.9322347 20.7278951,32.7945013 C24.4161473,32.7150669 28.038459,32.0445415 31.5206034,30.824844 C36.1644618,29.198111 40.1774789,26.4409783 44.521961,24.2039562 C46.5608227,23.1542238 48.6682694,22.2920694 50.8772713,21.6710364 C53.0208618,21.0681448 55.1321873,20.7916214 57.07302,22.0812423 C59.1261629,23.4455422 60.9659693,24.7857123 63.3147859,25.6397647 C65.5680419,26.4591196 67.9547654,26.9174088 70.3554175,26.8989152 C75.0262514,26.8629848 79.630616,25.4136143 84.1671009,24.442788 C87.8664606,23.6512615 91.824645,22.8623771 95.596116,23.6232569 C97.169869,23.9408186 99.4686132,24.596373 100.03704,26.2252195 C90.4702231,27.9519941 86.7128658,39.7350643 89.4098969,48.3849651 C90.8655214,53.0536324 99.6154804,58.5112551 103.01758,56.0568662 C105.172907,54.5019402 103.864402,52.460604 103.01758,51.1130365 C101.39587,48.5323856 100.841019,45.2174504 103.841834,43.4207523 C106.430257,41.8711641 109.151806,45.5510249 109.203289,45.5469739 C109.914704,45.4911408 116.061951,42.0288374 120.297292,36.9764587 C124.475472,37.2231227 125.109362,34.4794188 124.111695,32.2355846 C123.114027,29.9917505 116.886908,27.1678651 113.529768,26.6192214 Z" id="hair" fill="#0044CC"></path>
                            </g>
                            <g id="Bottom" transform="translate(96.000000, 241.000000) scale(-1, 1) translate(-96.000000, -241.000000) translate(37.000000, 150.000000)">
                                <polygon id="Leg" fill="#D6AD92" points="33.4699225 0 62.470463 93.6836782 76.5190482 173.355612 87.534109 173.355612 72.6895053 0"></polygon>
                                <path d="M23.095102,0 C25.064889,51.4373747 22.7467159,77.969704 22.305854,82.6430131 C21.8649921,87.3163223 15.8281499,117.618309 1.53665875,174.924441 L13.2740291,170.941177 C35.8603982,118.382973 43.5570275,91.0675458 46.1475131,84.1660257 C48.7379987,77.2645056 55.6181997,49.2091637 66.7881162,0 L23.095102,0 Z" id="Leg" fill="#F0C2A3"></path>
                                <polygon fill="#77C1E6" fill-rule="nonzero" points="29.6166279 0 41.9471705 47.730848 79.6095167 47.730848 73.9939075 0"></polygon>
                                <path d="M22.6806977,0 C18.6235169,12.0169849 17.852858,27.9272675 20.3687209,47.730848 L58.801726,47.730848 L69.369954,0 L22.6806977,0 Z" fill="#ADE4FF" fill-rule="nonzero"></path>
                            </g>
                            <g id="Body" transform="translate(96.331526, 133.841551) scale(-1, 1) rotate(8.000000) translate(-96.331526, -133.841551) translate(8.831526, 65.341551)">
                                <path d="M136.785594,74.5692783 L158.534886,95.6393854 C164.863128,98.3199879 170.048221,101.279914 174.090165,104.519165 C174.999138,105.607987 175.988702,107.694227 171.712031,106.760664 C167.43536,105.827102 162.894665,105.036138 162.090872,106.417293 C161.28708,107.798448 163.65552,109.914868 162.170012,111.722445 C161.179673,112.927496 157.849086,109.094464 152.17825,100.22335 L129.561863,86.9818028 L136.785594,74.5692783 Z M30.4316509,55.5001031 L47.2437932,55.5627603 C34.4391301,96.7604134 27.6420042,118.330852 26.8524156,120.274075 C25.0758411,124.646327 28.8353116,131.305191 30.4430104,134.883615 C25.206789,137.210411 25.764714,128.593334 19.1593615,131.645058 C13.130302,134.430529 8.54401154,139.477617 1.57830452,135.209383 C0.721911777,134.684628 -0.216555149,132.708834 2.05089959,131.164855 C7.69995624,127.31824 15.8405891,120.585971 16.9405168,118.369993 C18.4404647,115.34811 22.9375094,94.3914804 30.4316509,55.5001031 Z" id="Skin" fill="#D6AD92"></path>
                                <path d="M77.9055732,11.5024396 L84.420746,9.79728632 C98.0391251,45.459081 153.750845,65.7055815 158.233169,79.0901047 C159.876956,83.9985631 156.464999,86.8510327 158.475608,88.2140014 L150.425796,95.2154624 C148.822478,93.6561363 145.985846,97.0132721 139.309529,95.4226552 C132.633211,93.8320382 81.6943469,54.8083216 77.9055732,11.5024396 Z" id="Clothes-Back" fill="#0044CC" transform="translate(118.301287, 52.829752) rotate(5.000000) translate(-118.301287, -52.829752) "></path>
                                <path d="M92.8297698,12.9687614 C92.0436974,61.6164131 120.359621,74.0167112 114.055127,93.521998 C108.850803,109.623502 59.0368409,126.93255 50.4168422,111.149276 C46.9275768,104.760409 45.3444827,97.0335247 45.1648611,88.6327326 C42.96177,95.08675 41.2193696,100.642886 39.9376582,105.301145 C37.7265268,113.337294 29.1544422,114.614676 29.1544422,117.710489 L17.8608419,114.614676 C18.6268602,110.408885 13.3027842,108.360916 14.7303078,98.964813 C21.126517,56.8643254 38.3120887,26.3471229 66.2870229,7.41320531 L66.5127086,4.25180121 C66.6677754,2.04962851 68.577606,0.389443699 70.7799279,0.542376546 L70.7801966,0.538508006 L89.6061463,1.84192941 C91.8099781,1.99496711 93.4724752,3.90558734 93.3194375,6.10941913 C93.319348,6.11070802 93.3192579,6.11199686 93.3191672,6.11328566 L92.8297698,12.9687614 Z" id="Clothes-Front" fill="#1556D6"></path>
                            </g>
                        </g>
                    </g>
                    <g id="A-Human/Standing" mask="url(#mask-2)">
                        <g transform="translate(831.509274, -6.915409) rotate(150.000000) translate(-831.509274, 6.915409) translate(742.009274, -108.915409)">
                            <g id="Head/Front" transform="translate(48.580818, 0.356752)">
                                <path d="M7.50751462,24.8940761 C4.68634552,21.6488255 2.77691926,17.6717263 3.09598551,13.2152723 C4.01530422,0.374987655 22.2542024,3.19968669 25.8020457,9.68035975 C29.349889,16.1610328 28.928313,32.5997975 24.3430417,33.7580745 C22.5144418,34.2199938 18.6189803,33.0884766 14.6543094,30.7465836 L17.1428571,48 L2.44897959,48 L7.50751462,24.8940761 Z" id="Head" fill="#F0CDB6"></path>
                                <path d="M6.37845205,27.784512 C4.53422578,19.7438753 -0.71967385,14.2628426 0.0827226519,10.6690218 C0.617653653,8.27314128 2.04340513,6.7832273 4.35997709,6.19927985 C5.55808618,1.44930051 9.4222338,-0.57105084 15.95242,0.138225801 C25.7476992,1.20214076 31.7261924,5.18865523 29.1443767,13.9607267 C26.7710809,13.9607267 23.9060056,13.119592 19.944202,14.5607267 C18.6871377,15.017993 17.7880485,16.4360157 17.2469343,18.8147949 L15.4566109,18.8147949 C13.7190267,15.9918343 12.0057574,14.9544733 10.3168033,15.702712 C8.62784911,16.4509506 8.24392236,18.2684252 9.16502305,21.1551358 L8.28310777,27.784512 L6.37845205,27.784512 Z" id="Hair" fill="#0044CC"></path>
                            </g>
                            <g id="Bottom/Skinny-Jeans-1" transform="translate(0.809002, 98.428203)">
                                <path d="M149.035019,97.716763 C137.0982,83.1042679 129.021464,72.2712175 124.804809,65.2176118 C117.584872,53.1401263 111.675699,42.3933947 109.810911,38.2881917 C105.364086,28.4988084 120.048223,23.9148838 123.371576,28.4809769 C128.401604,35.39194 139.143958,57.1387952 155.598639,93.7215425 L149.035019,97.716763 Z" id="LegLower" fill="#B28B67"></path>
                                <path d="M124.574309,93.4682081 L102.359201,37.4096045 C97.6078314,27.1904948 120.553078,20.4732256 124.044975,25.2289945 C131.972664,36.0260621 150.814947,78.6189277 153.176871,81.8357348 L124.574309,93.4682081 Z" id="LegLower" fill="#2F3676"></path>
                                <path d="M94.3654834,40.2095693 C75.9014233,37.1941167 63.5339453,35.1321619 57.2630495,34.0237048 C39.3885248,30.8641653 34.1761613,21.2217324 37.2579889,0.183433579 L70.1914969,0.183433579 C74.5497174,1.44511173 92.7600534,9.24818179 124.822505,23.5926438 C130.591172,26.4633584 129.516857,34.9276723 128.462447,37.7162894 C128.419444,37.8300198 118.694576,54.5350668 99.2878431,87.8314304 L72.346845,70.6264537 L94.416079,42.2369404 C94.9989064,41.0601513 94.9820412,40.3843609 94.3654834,40.2095693 Z" id="Leg-and-Butt" fill="#5C63AB"></path>
                            </g>
                            <g id="Body/Long-Sleeve-1" transform="translate(30.038821, 22.020527)">
                                <path d="M67.8615258,14.6649677 L90.7344942,7.80964733 C95.0014653,4.49330445 99.026198,2.06855022 102.808692,0.535384637 C103.908774,0.328653242 105.730011,0.448717837 103.454148,3.02628932 C101.178284,5.60386081 98.9005262,8.41726972 99.5503234,9.49805655 C100.200121,10.5788434 102.567668,9.76410336 103.252882,11.476135 C103.70969,12.6174895 99.7872226,13.4349515 91.485478,13.9285209 L73.7012926,24.3780644 L67.8615258,14.6649677 Z M65.8403436,54.9273798 L85.0893003,69.0397342 C90.3100136,70.4462211 94.6717509,72.1961283 98.1745122,74.2894559 C99.0019251,75.042203 100.001932,76.566641 96.5704496,76.30318 C93.1389676,76.0397189 89.5176958,75.9166774 89.044218,77.0852334 C88.5707402,78.2537895 90.6472871,79.6512544 89.6901823,81.2279425 C89.0521124,82.2790679 86.0376137,79.6434099 80.6466864,73.3209687 L61.5851698,65.4292635 L65.8403436,54.9273798 Z" id="Skin" fill="#F0CDB6"></path>
                                <path d="M28.9686501,22.6916361 C44.1444518,38.8278793 62.6574904,49.3540511 87.908354,58.6871726 L82.2955991,69.8883034 C56.2396392,67.4453106 42.3099132,65.4914389 31.3956282,49.3285956 C28.6563639,45.2720496 23.7610786,31.3124274 20.8279973,24.0633305 L28.9686501,22.6916361 Z" id="Coat-Back" fill="#77C1E6" fill-rule="nonzero" transform="translate(54.368176, 46.289970) rotate(15.000000) translate(-54.368176, -46.289970) "></path>
                                <path d="M6.63793103,81.9378882 L53.1034483,81.9378882 C42.5782306,49.8889563 37.2015499,27.8925618 36.973406,15.9487047 C36.961775,15.3397954 35.8354008,14.266811 35.3370683,14.4073279 C31.6928159,15.4349125 27.7931782,15.0506893 23.6381552,13.2546584 C12.6226202,30.9426426 8.81325725,52.7201326 6.63793103,81.9378882 Z" id="Shirt" fill="#F2F2F2"></path>
                                <path d="M27.603234,13.2832134 C40.9223848,13.3921033 62.5317243,15.8204327 87.4533386,7.83229814 L89.9137931,20.1070037 C71.0782716,32.2017278 52.0057278,41.5708656 35.2934271,40.2403922 C42.550613,71.320364 42.2160217,96.7626007 26.1941643,96.7626007 C18.5429302,96.7626007 10.28447,96.7626007 1.41878343,96.7626007 C-2.51611896,70.3605147 7.82557453,33.7533582 17.4130763,15.289004 C17.7791942,14.5839059 18.5586957,13.2546584 20.3947417,13.2546584 C21.9945183,13.2546584 24.3941833,13.2546584 27.5937365,13.2546584 C27.5969028,13.2641767 27.6000686,13.273695 27.603234,13.2832134 Z" id="Coat-Front" fill="#ADE4FF" fill-rule="nonzero"></path>
                            </g>
                        </g>
                    </g>
                    <g id="Group" mask="url(#mask-2)">
                        <g transform="translate(324.000000, 200.000000)">
                            <g id="Head" transform="translate(33.000000, 0.000000)">
                                <path d="M11.2341011,30.8302622 C9.08078949,28.137853 7.62338318,24.8382685 7.86691663,21.1409892 C8.56860432,10.4880982 22.4897941,12.8315985 25.1977538,18.2082631 C27.9057134,23.5849277 27.5839374,37.2232833 24.0841408,38.1842433 C22.6884268,38.5674728 19.7151409,37.628714 16.6890296,35.6857718 L18.5884615,50 L7.37307692,50 L11.2341011,30.8302622 Z" fill="#D6A889"></path>
                                <path d="M20.7677486,12.3523112 C19.2352404,11.8545236 17.0105768,11.6857079 16.0747269,11.7999103 C16.607081,10.4412387 16.8183269,8.92751504 16.6461105,7.45363784 C16.4787236,6.02149307 15.8779695,4.80206333 15.3223623,3.52424831 C15.0662557,2.93525921 14.7760207,2.3494803 14.3432974,1.89897066 C13.9024893,1.43999414 13.3444852,1.13703272 12.7593644,0.992494043 C12.1605779,0.84454454 11.5344601,0.856863634 10.9347434,0.991129714 C10.6694429,1.05051818 10.4314022,1.17972821 10.1712173,1.25155615 C9.90477202,1.32514969 9.77552028,1.14750596 9.58212562,0.968979422 C9.11606096,0.538814336 8.43281187,0.326460452 7.84318355,0.25045927 C7.18164933,0.1652288 6.49521636,0.271526124 5.86430475,0.503181258 C5.25020696,0.72869691 4.66025666,1.09489902 4.2162646,1.628392 C4.01857706,1.8658656 3.83913429,2.13616336 3.7225108,2.43459039 C3.67468086,2.55705903 3.66677479,2.62960926 3.55204733,2.67447163 C3.44594142,2.71600343 3.32184115,2.71720725 3.2123367,2.75673268 C2.15349559,3.13874496 1.24819682,4.01023053 0.755265825,5.12918141 C0.467678026,5.78197297 0.331450343,6.93130821 0.368762705,8.21952416 C0.406075066,9.50774012 1.49804297,12.8690631 2.51935707,14.0951139 C3.43098786,15.1894667 4.77097743,15.9116385 6.06417451,16.2277616 C5.20581133,17.2728782 4.63442778,18.5788626 4.21190017,19.9070776 C3.75295454,21.3498561 3.46890838,22.8489734 3.36401879,24.3764206 C3.26438798,25.827666 3.25515827,27.3623762 3.57454923,28.7826433 C3.87333431,30.1108181 4.51229509,31.2003958 5.57897072,31.8916294 C6.06757305,32.2082742 6.5932731,32.4461491 7.12201395,32.663559 C7.64309914,32.8777989 8.1657584,33.0860999 8.71159925,33.2063214 C9.74464725,33.4337632 10.9349581,33.3947193 11.7307166,32.5188197 C12.0175174,32.2030576 12.3329374,31.8062785 12.54218,31.4205344 C12.6174129,31.2818142 12.6627744,31.1910862 12.5713717,31.055496 C12.4618672,30.8931006 12.2847498,30.7686657 12.1440861,30.6416226 C11.341924,29.917284 10.8453798,28.9502953 10.7202063,27.8011286 C10.5932083,26.6351484 10.8872355,25.1301725 11.9514427,24.6213177 C13.2651025,23.9931644 14.7118062,24.7141724 15.8794005,25.3862652 C16.3756227,23.5206649 17.3945042,21.8408944 18.991924,20.9851387 C20.7591991,20.0384144 22.7871242,19.9276228 24.6032667,19.115325 C25.076522,18.9036533 25.5585419,18.6633708 25.9069814,18.2320821 C26.0525819,18.0518301 26.2234031,17.8180081 26.281536,17.5796116 C26.3579136,17.2664578 26.168311,17.0039047 26.0218519,16.7597699 C25.2452683,15.465302 22.3002569,12.8500988 20.7677486,12.3523112 Z" id="hair" fill="#0044CC"></path>
                            </g>
                            <g id="Bottom" transform="translate(0.000000, 90.000000)">
                                <ellipse id="Ballsy-Ball" fill="#ADE4FF" fill-rule="nonzero" cx="38.3522727" cy="49.9249222" rx="37.96875" ry="36.6476994"></ellipse>
                                <path d="M110.014215,80.851442 C103.705583,66.7557094 99.1432431,54.4817153 97.311937,48.005927 C94.1762963,36.9178052 91.7908895,27.1609055 91.1879873,23.5172124 C89.7502897,14.8283589 102.247579,14.3223897 103.899459,18.6405984 C106.399643,25.1763789 110.7644,46.6502261 116.008989,79.085673 L110.014215,80.851442 Z M36.8377199,36.615081 C42.6258835,34.3053926 62.8957242,27.077196 72.6718684,25.0324715 C75.4811402,24.4448997 78.2039686,23.8989792 80.763905,23.4056188 C88.3729419,21.9391772 92.3151369,35.7968667 84.9867063,36.8616291 C66.7360177,39.5133082 40.8625848,42.2515978 38.6483843,42.5588966 C35.5450878,42.9895889 33.2000396,38.0666482 36.8377199,36.615081 Z" id="Skin" fill="#F0BC99"></path>
                                <path d="M85.4340483,19.5921813 L54.1256494,3.50262999 L54.1256494,0 L57.8490437,0 C88.1385169,7.79174917 103.616413,12.7851716 104.282732,14.9802672 C104.289901,15.0038839 104.296474,15.0275315 104.302451,15.05121 C104.317694,15.0714078 104.332679,15.0917277 104.347403,15.1121697 C110.350136,23.4462569 113.945149,64.1339353 115.125097,67.1804907 L103.622501,68.9128592 C99.2224524,52.4412977 85.1449675,40.9666082 85.5189165,21.238813 C85.4179421,20.6601203 85.3924284,20.1113286 85.4340483,19.5921813 Z" id="Leg-Back" fill="#0044CC"></path>
                                <path d="M56.7269265,29.1477405 C53.8622804,28.5688406 51.2242493,28.0521814 48.9669421,27.652481 C34.3861811,25.0706723 30.1343071,17.1913858 32.648242,-1.28324064e-15 L59.5130464,-4.97379915e-14 C63.9014581,1.27262757 86.7077683,10.9277479 98.5406956,16.0631063 C106.372333,19.4619496 103.903546,31.714552 99.4684858,34.9031824 C99.4444023,35.0987987 99.3645858,35.2316752 99.2224524,35.2911454 C75.3649541,45.2733964 56.4914835,40.0357348 50.1866883,41.7092465 L47.270439,32.4223314 L56.7269265,29.1477405 Z" id="Leg-Front" fill="#1556D6"></path>
                                <path d="M27.6573831,47.3907658 C27.3550614,48.3489361 27.2045658,49.1021236 27.2058963,49.6503283 C27.2080869,50.5529875 27.3612216,51.8705536 27.6653002,53.6030266 C28.709395,53.6055459 38.0928514,53.6281876 55.8156694,53.6709515 C56.5413113,51.2472399 56.1158529,49.9367841 54.5392941,49.7395841 C52.9627353,49.5423842 51.6530273,49.364603 50.61017,49.2062406 L37.9860893,43.5375951 C37.482267,43.3113616 36.8904399,43.5363917 36.6642064,44.040214 C36.6595922,44.05049 36.6551518,44.0608432 36.6508874,44.0712693 L36.0118764,45.6335666 C34.5544868,46.3127931 33.3696885,46.6513059 32.4574814,46.6491048 C31.8974035,46.6477533 31.1756492,46.4745775 30.2922186,46.1295773 L30.2922133,46.1295911 C29.263326,45.7277867 28.1035212,46.2361377 27.7017168,47.265025 C27.6855456,47.3064342 27.6707594,47.3483711 27.6573831,47.3907658 Z" id="shoe" fill="#E4E4E4" transform="translate(41.682317, 48.560275) rotate(70.000000) translate(-41.682317, -48.560275) "></path>
                            </g>
                            <g id="Body/Long-Sleeve-1" transform="translate(3.000000, 36.000000)">
                                <path d="M77.5984511,47.0544397 L93.3640714,58.5626917 C97.6400323,59.7096446 101.212459,61.1366477 104.081353,62.8437009 C104.759035,63.4575463 105.578078,64.7006852 102.767565,64.4858397 C99.9570521,64.2709942 96.9910942,64.1706571 96.603298,65.1235836 C96.2155018,66.0765102 97.916272,67.2161059 97.132367,68.5018533 C96.6097638,69.3590183 94.1407759,67.2097089 89.7254034,62.0539252 L74.1133035,55.6184483 L77.5984511,47.0544397 Z M17.0664184,47.4516178 L27.3948887,47.4919935 C21.0175349,67.9568637 17.5747114,78.8153957 17.0664184,80.0675894 C15.9227591,82.8850251 18.342896,87.175931 19.3778426,89.4818318 C16.007056,90.9811963 16.3662169,85.4284376 12.1140603,87.3949377 C8.232889,89.1898678 5.28049162,92.4421609 0.79635893,89.6917533 C0.245061165,89.3536069 -0.359071368,88.0804245 1.10058921,87.0854998 C4.73713601,84.6067795 9.97762027,80.2685724 10.6856922,78.8406179 C11.6512748,76.8933469 13.7781836,66.4303468 17.0664184,47.4516178 Z" id="Skin" fill="#D6A889"></path>
                                <path d="M43.9803011,6.46883533 L48.1743414,5.37042527 C65.1578803,17.5534346 73.926134,43.0458677 94.4968401,55.1569245 L90.3387568,61.3071995 C56.3859163,60.1116666 45.2790568,29.0530379 43.9803011,6.46883533 Z" id="Coat-Back" fill="#DB701F" transform="translate(69.238571, 33.338812) rotate(5.000000) translate(-69.238571, -33.338812) "></path>
                                <path d="M27.7876569,57.7593583 C44.9240634,57.7593583 57.5292449,57.7593583 65.6032013,57.7593583 C67.3311788,57.7593583 67.0055744,55.2790463 66.7557848,54.0274673 C63.8729108,39.5827328 52.6192639,24.0120079 52.6192639,3.45029196 L41.7114807,1.75 C32.6893427,16.1740836 29.569331,33.9330509 27.7876569,57.7593583 Z" id="Shirt" fill="#DDE3E9"></path>
                                <path d="M28.0915403,15.9282082 C26.5073217,15.4755297 25.2527845,14.4197421 24.3279289,12.7608454 C20.3411147,5.60976985 21.7809399,1.67257306 26.0415798,0.378394245 C30.3022197,-0.915784573 34.1018184,1.75 40.8901567,1.75 C41.2593857,1.75 41.597558,1.7730093 41.9046734,1.8190279 L45.3193776,2.01272317 C55.1165359,35.019163 57.8185337,57.0405458 53.425371,68.0768717 L23.6615922,68.0768717 C21.8981199,72.1645088 20.2106258,75.60368 18.5991098,78.394385 L10.4890167,78.394385 C9.72574302,53.8618394 15.5932509,33.0397805 28.0915403,15.9282082 Z" id="Coat-Front" fill="#FF983D"></path>
                                <path d="M30.1428561,51.1255081 C31.0789212,58.9110006 32.6003401,64.5614551 34.707113,68.0768717 L23.6615922,68.0768717 C25.7186333,63.3087571 27.8790546,57.6583025 30.1428561,51.1255081 Z" id="Shade" fill-opacity="0.1" fill="#000000"></path>
                            </g>
                        </g>
                    </g>
                </g>
            </g>
        </g>
    </g>
</svg>