<?xml version="1.0" standalone="no"?>
<!DOCTYPE svg PUBLIC "-//W3C//DTD SVG 1.1//EN" "http://www.w3.org/Graphics/SVG/1.1/DTD/svg11.dtd" >
<!--
2013-9-30: Created.
-->
<svg>
<metadata>
Created by iconfont
</metadata>
<defs>

<font id="iconfont" horiz-adv-x="1024" >
  <font-face
    font-family="iconfont"
    font-weight="500"
    font-stretch="normal"
    units-per-em="1024"
    ascent="896"
    descent="-128"
  />
    <missing-glyph />
    
    <glyph glyph-name="fangchanloushi" unicode="&#59095;" d="M663.689283 359.172681l0 370.129852L64.275397 729.302533l0-858.606089L174.661484-129.303556 174.661484 618.947146l378.614084 0 0-339.640444 296.062949-97.591689 0-311.017546 110.385063 0L959.723579 261.582015 663.689283 359.172681zM649.232013 72.524149l89.689718 0 0-201.826682-89.689718 0L649.232013 72.524149 649.232013 72.524149zM243.685533 522.173079l89.690742 0 0-87.388303-89.690742 0L243.685533 522.173079 243.685533 522.173079zM394.589428 522.173079l89.689718 0 0-87.388303-89.689718 0L394.589428 522.173079 394.589428 522.173079zM243.685533 146.1541l89.690742 0 0-87.446631-89.690742 0L243.685533 146.1541 243.685533 146.1541zM394.589428 146.1541l89.689718 0 0-87.446631-89.689718 0L394.589428 146.1541 394.589428 146.1541zM243.685533-41.91423l89.690742 0 0-87.388303-89.690742 0L243.685533-41.91423 243.685533-41.91423zM394.589428-41.91423l89.689718 0 0-87.388303-89.689718 0L394.589428-41.91423 394.589428-41.91423zM243.685533 334.164101l89.690742 0 0-87.389326-89.690742 0L243.685533 334.164101 243.685533 334.164101zM394.589428 334.164101l89.689718 0 0-87.389326-89.689718 0L394.589428 334.164101 394.589428 334.164101zM394.589428 334.164101"  horiz-adv-x="1024" />

    
    <glyph glyph-name="ershoufang" unicode="&#59057;" d="M511.644901 896c-341.067956 0-511.624447-170.537048-511.624447-511.64082 0-341.077166 170.555467-511.623423 511.624447-511.623423 341.110935 0 511.657192 170.546258 511.657192 511.623423C1023.302094 725.462952 852.755836 896 511.644901 896L511.644901 896zM219.644477 417.498952c-11.595083 11.727089-14.384615 27.796066-6.198166 35.867906l264.770246 261.805728c1.430582 2.118244 3.078105 4.176113 4.986571 6.129604 2.180666 2.208295 4.526083 4.089132 6.941086 5.66707l0.942465 0.941442c3.53143 3.480264 8.507768 4.910846 13.95892 4.473895 5.465478 0.419556 10.443863-0.99363 13.957897-4.473895l0.950651-0.941442c2.415003-1.577938 4.752234-3.458775 6.930853-5.66707 1.917676-1.953492 3.583618-4.010337 4.995781-6.129604l264.779456-261.805728c8.17724-8.071839 5.405103-24.140817-6.207375-35.867906-11.596106-11.726066-27.621081-14.682397-35.791158-6.600325L505.045599 657.699616 255.437682 410.89965C247.265558 402.817578 231.232397 405.772886 219.644477 417.498952L219.644477 417.498952zM300.12751 406.330588 508.93314 607.38365l201.044876-201.053062 0-108.495016L669.225869 297.835571l-97.658204-79.977519-11.534707 0L560.032958 347.818963 448.528398 347.818963l0-177.635723L300.12751 170.18324 300.12751 406.330588 300.12751 406.330588zM852.607457 168.448736l-77.562517 0.287549c0 0-150.232606-126.308731-171.880649-128.600937-21.62246-2.310625-239.328807-1.447978-239.328807-1.447978s-38.186717 0.086981-39.330774 33.837666c-1.169639 15.84999 6.356778 35.606962 18.85851 36.374442l152.246473-0.278339c0 0 9.372461-1.665942 16.59291-11.979846 7.068999-10.086729 24.26259-14.699794 35.029818-14.699794s31.29168 3.609201 42.538839 15.859199c13.836123 14.709003 70.499657 62.862723 76.847226 73.822332 6.355755 10.959609-0.576121 18.841114-15.275915 15.08251-14.71719-3.740184-75.269287-94.867648-106.516965-80.552617-27.67327 12.703323-15.46625 34.900881-5.370311 45.860491 10.086729 10.959609 95.339392 106.987686 124.380822 121.399931 6.757914 2.685155 15.467273 5.475711 25.563212 5.187139 10.087753-0.287549 163.206082 0 163.206082 0L852.60541 168.448736 852.607457 168.448736zM852.607457 168.448736"  horiz-adv-x="1024" />

    
    <glyph glyph-name="ai59" unicode="&#59058;" d="M510.976182 737.132736c-194.228633 0-353.130689-158.901033-353.130689-353.134783 0-194.229656 158.902056-353.130689 353.130689-353.130689 194.229656 0 353.130689 158.901033 353.130689 353.130689C864.106872 578.231703 705.205838 737.132736 510.976182 737.132736M510.976182 631.198032c60.004629 0 105.935728-45.931099 105.935728-105.934704 0-60.078307-45.931099-105.931634-105.935728-105.931634-59.999512 0-105.931634 45.853327-105.931634 105.931634C405.044548 585.266933 450.975647 631.198032 510.976182 631.198032M510.976182 129.742179c-88.293929 0-165.93524 45.934169-211.866339 112.99654 0 70.656223 141.264351 109.475344 211.866339 109.475344 70.607104 0 211.871455-38.819121 211.871455-109.475344C676.912445 175.676347 599.274204 129.742179 510.976182 129.742179"  horiz-adv-x="1024" />

    
    <glyph glyph-name="yinle" unicode="&#58912;" d="M959.112154 127.4336 959.112154 773.053853c0 32.921807-26.784016 59.705823-59.706847 59.705823L329.374636 832.759677c-32.921807 0-59.706847-26.784016-59.706847-59.705823l0-590.643128c-20.75265 13.34289-45.429679 21.090341-71.882144 21.090341-73.490781 0-133.280516-59.789735-133.280516-133.280516s59.789735-133.280516 133.280516-133.280516c73.490781 0 133.280516 59.789735 133.280516 133.280516L331.066161 771.361305l566.646598 0 0-535.664979c-20.739347 13.31833-45.39284 21.048385-71.818699 21.048385-73.490781 0-133.280516-59.789735-133.280516-133.280516s59.789735-133.280516 133.280516-133.280516 133.280516 59.789735 133.280516 133.280516C959.175599 124.792447 959.150016 126.114558 959.112154 127.4336zM197.785645-1.661593c-39.635719 0-71.882144 32.246425-71.882144 71.882144s32.246425 71.882144 71.882144 71.882144c39.635719 0 71.882144-32.246425 71.882144-71.882144S237.422388-1.661593 197.785645-1.661593zM825.895083 51.582051c-39.635719 0-71.882144 32.246425-71.882144 71.882144s32.246425 71.882144 71.882144 71.882144c38.790468 0 70.483284-30.889521 71.818699-69.360717l0-2.521426c0-0.423649 0.01535-0.843204 0.031722-1.26276C897.067053 83.147978 865.108177 51.582051 825.895083 51.582051z"  horiz-adv-x="1024" />

    
    <glyph glyph-name="lvyouchanpin" unicode="&#58939;" d="M390.088928 334.375789c-40.580231 46.854121-93.196589 137.204895-65.687048 246.345618 146.501632-64.620763 131.918495-253.587556 147.796114-541.943986l-32.841989 0 0 65.687048L324.400856 104.464469c0 0-114.953102-8.341992-114.953102-49.267077s90.942245-82.108043 328.441381-82.108043c237.511415 0 279.174304 62.321394 279.174304 82.108043 0 19.822464-23.61586 49.267077-114.954125 49.267077l-65.687048 0c0 0-12.187577 185.849802 114.954125 377.722784 16.077164-22.36538 38.229696-73.010851-32.846082-164.235528 84.638679 7.966439 101.554954 59.416228 98.533131 131.393539 23.795962-12.33698 41.923832-37.214577 32.846082-131.393539 49.462528 29.791513 76.492138 118.28601 0 180.659593 34.568307-2.086521 53.172013-3.332908 65.687048-65.686025 46.228881 40.772612-15.321964 156.48603-114.954125 131.37512-19.510356 118.483508-197.066261 102.047164-197.066261 32.846082 39.709397 7.862062 84.966137 6.371104 98.533131-16.425088-44.685735-1.790786-98.533131-8.290827-98.533131-131.37512 40.316218 45.567825 56.493665 69.51319 131.37512 65.686025-48.378847-29.591969-147.796114-164.909887-147.796114-476.254891-27.081799-0.398066-49.267077 0-49.267077 0s21.166065 442.902272-164.221202 574.789045c75.457576 6.931876 135.201262 8.131191 197.063191-114.954125 9.29776 67.330478 9.493212 211.760938-147.796114 197.063191 17.256012 33.897018 15.534811 57.69298 147.796114 49.266054-85.886089 126.45097-274.198989 54.327326-279.175327-65.687048 0 0-197.705827 40.712237-197.066261-164.221202 52.467979 51.829436 77.07133 73.80289 98.533131 82.113159-27.981285-38.71065-97.413634-141.42808 0-229.92667 3.365654 118.861108 30.071899 137.993864 49.267077 164.234505C243.408217 472.074941 247.428787 338.169185 390.088928 334.375789"  horiz-adv-x="1024" />

    
    <glyph glyph-name="lvyou" unicode="&#58915;" d="M992 665.6h-64c-12.8 0-19.2-6.4-19.2-12.8l-57.6-147.2h-185.6L780.8 864c0 6.4 0 12.8-6.4 19.2-6.4 6.4-12.8 6.4-19.2 6.4H633.6c-6.4 0-12.8-6.4-19.2-12.8L377.6 505.6H217.6C108.8 505.6 6.4 403.2 6.4 288c0-12.8 12.8-25.6 25.6-25.6h345.6l243.2-377.6c6.4-6.4 12.8-12.8 19.2-12.8h121.6c6.4 0 12.8 6.4 19.2 6.4 6.4 6.4 6.4 12.8 6.4 19.2L672 256h204.8c76.8 0 147.2 70.4 147.2 153.6V640c-6.4 12.8-19.2 25.6-32 25.6z"  horiz-adv-x="1024" />

    
    <glyph glyph-name="fangchan" unicode="&#58887;" d="M949.533-127.739H722.499c-0.545-0.014-0.997-0.261-1.542-0.261h-418.11c-0.545 0-0.997 0.247-1.537 0.261H74.235c-28.397 0-51.357 21.409-51.357 52.93V563.479c0 19.56 8.605 53.578 51.357 53.578h181.26V856.036C255.495 878.117 276.693 896 302.846 896h418.111c26.159 0 47.352-17.884 47.352-39.963v-378.669h181.224c28.524 0 51.59-19.503 51.59-52.971v-499.782c0-28.911-23.066-52.354-51.59-52.354zM115.999 151.37H255.68v93.126H115.999v-93.126z m0 325.924v-93.112H255.68v93.112H115.999z m325.925-605.28h139.682V11.697H441.924v-139.682z m186.242 838.093H395.363v-93.126h232.803v93.126z m0-232.813H395.363v-93.112h232.803v93.112z m0-232.798H395.363v-93.126h232.803v93.126z m279.364 93.116H767.848v-186.243H907.53V337.61z"  horiz-adv-x="1024" />

    
    <glyph glyph-name="pinche" unicode="&#58880;" d="M1014.090 595.406c-4.955 5.781-11.561 9.084-18.168 12.387-8.258 3.303-15.69 8.258-24.774 9.91-12.387 2.477-24.774 1.652-36.335 0.826-10.735-1.652-18.994-15.69-17.342-26.426l2.477-9.91c1.652-4.955-0.826-9.084-4.129-11.561s-6.606-0.826-9.91 1.652c-9.91 8.258-13.213 19.819-18.168 30.555-11.561 25.6-23.948 50.374-37.161 74.323-7.432 12.387-14.039 25.6-23.123 37.161-10.735 14.865-21.471 29.729-36.335 41.29-11.561 9.084-24.774 13.213-38.813 15.69-23.948 4.129-48.723 6.606-72.671 7.432-0.826 0-0.826 0.826-1.652 0.826-6.606 2.477-13.213 1.652-19.819 2.477-1.652 0-3.303-0.826-4.955 0.826h-35.51c-0.826 1.652-3.303 0.826-4.955 0.826-8.258 0.826-16.516-0.826-24.774 0.826h-164.335c-6.606-1.652-13.213 0-19.819-0.826-1.652 0-3.303 0.826-4.955-0.826h-38.813c-0.826-0.826-0.826-0.826-1.652-0.826-20.645-4.129-42.116-1.652-62.761-5.781-9.91-2.477-20.645-1.652-29.729-4.955-1.652-3.303-5.781-2.477-8.258-2.477-14.039-1.652-23.948-9.91-33.032-18.994-14.865-14.039-26.426-30.555-37.987-47.897-11.561-18.168-22.297-37.161-31.381-56.155-9.91-19.819-19.819-39.639-28.903-60.284-1.652-3.303-4.129-6.606-6.606-9.91-3.303-3.303-7.432-7.432-12.387-4.129-5.781 3.303-7.432 9.91-4.129 15.69 8.258 14.039-4.955 33.858-19.819 33.032-10.735-0.826-22.297 1.652-33.032-1.652-12.387-3.303-23.948-8.258-33.858-15.69-5.781-4.129-9.91-9.91-13.213-16.516-0.826-0.826-0.826-2.477-2.477-2.477v-10.735c5.781-11.561 16.516-18.168 27.252-21.471 12.387-4.129 26.426-6.606 39.639-8.258 11.561-1.652 23.123-1.652 34.684-4.129 3.303-0.826 4.129-3.303 4.955-5.781 3.303-8.258 0-17.342-7.432-23.123-16.516-13.213-29.729-29.729-39.639-47.897-4.129-8.258-11.561-14.865-14.865-23.948-3.303-9.084-7.432-17.342-11.561-26.426-1.652-4.129-2.477-9.084-2.477-14.039 0.826-46.245 3.303-91.665 4.129-137.91 0.826-28.903 3.303-56.981 5.781-85.884 2.477-26.426 12.387-50.374 35.51-66.065 9.91-6.606 20.645-12.387 33.858-12.387h795.252c25.6 0 43.768 11.561 58.632 30.555 9.91 13.213 14.039 28.903 16.516 45.419 4.129 40.465 4.955 80.929 7.432 121.394 1.652 34.684 1.652 69.368 3.303 104.052 0.826 10.735-3.303 19.819-8.258 29.729-4.955 9.91-9.91 19.819-15.69 28.903-4.955 8.258-9.91 17.342-15.69 24.774-8.258 11.561-18.994 21.471-29.729 31.381-5.781 4.955-6.606 10.735-7.432 17.342-0.826 5.781 3.303 10.735 9.91 12.387 1.652 0 3.303 0.826 4.955 0.826 14.865 0 28.903 3.303 42.942 4.955 12.387 1.652 24.774 4.955 35.51 11.561 5.781 3.303 11.561 7.432 14.039 14.865 0.826 1.652 0.826 3.303 2.477 4.129v4.129c-4.955 1.652-6.606 8.258-10.735 13.213zM273.342 207.277c0-10.735-2.477-18.994-6.606-23.948-4.129-5.781-10.735-8.258-19.819-9.084s-18.168-0.826-29.729-0.826c-1.652 9.91-4.129 21.471-7.432 35.51 6.606-0.826 13.213-0.826 19.819-0.826 5.781 0 8.258 4.129 8.258 11.561v48.723l-27.252-5.781-2.477 37.161c9.91 1.652 19.819 2.477 29.729 4.129v46.245h-28.077v33.032h28.077v45.419h34.684v-45.419h24.774v-33.032h-24.774v-40.465l23.948 4.955c-1.652-11.561-2.477-23.123-3.303-35.51l-20.645-3.303 0.826-68.542zM469.058 265.084h-32.206v-93.316h-35.51v93.316h-42.116c-4.955-37.987-18.168-71.019-38.813-96.619-8.258 8.258-18.168 17.342-28.903 27.252 16.516 18.994 27.252 42.116 32.206 69.368h-23.948v32.206h27.252l0.826 52.852h-19.819v32.206h32.206c-5.781 9.084-14.039 20.645-23.123 33.032l28.077 15.69c10.735-12.387 19.819-23.948 28.077-35.51l-22.297-14.039h61.11l-17.342 11.561c9.084 11.561 18.168 23.948 27.252 37.161l29.729-17.342c-8.258-10.735-16.516-21.471-24.774-31.381h35.51v-32.206h-24.774v-52.852h32.206l-0.826-31.381zM815.071 220.49h-99.923v-49.548h-36.335v49.548h-118.090v32.206h117.265v27.252h-92.49v30.555c10.735 18.994 21.471 37.987 30.555 56.981h-47.071v32.206h62.761c4.955 10.735 9.084 21.471 13.213 31.381l38.813-5.781-11.561-25.6h133.781v-32.206h-151.123c-9.084-17.342-18.168-35.51-28.903-54.503h52.026v41.29h37.161v-41.29h75.148v-32.206h-75.148v-27.252h99.923v-33.032zM810.116 549.987c-27.252-3.303-54.503-2.477-81.755-2.477-8.258 0-17.342-0.826-25.6 0.826-6.606 1.652-13.213-0.826-19.819-0.826h-246.916c-29.729 0-58.632-0.826-88.361 0-23.123 0.826-45.419-0.826-68.542 0-20.645 0-41.29 1.652-61.935 2.477-15.69 0.826-22.297 11.561-14.865 26.426 11.561 23.948 23.123 47.897 37.987 70.194 14.039 22.297 31.381 43.768 53.677 59.458 8.258 5.781 17.342 8.258 26.426 9.91 23.948 4.955 48.723 5.781 73.497 7.432 40.465 3.303 80.929 1.652 121.394 2.477 35.51 0.826 71.845 0.826 107.355-1.652 18.994-0.826 37.987-0.826 56.155-4.129 14.865-3.303 31.381-2.477 45.419-10.735 14.039-7.432 25.6-18.994 36.335-30.555 10.735-11.561 18.994-23.948 28.077-37.161 4.955-6.606 8.258-14.865 12.387-22.297 7.432-14.039 14.039-28.077 21.471-42.942 1.652-4.129 3.303-7.432 3.303-11.561-1.652-8.258-5.781-14.039-15.69-14.865zM412.077 383.174h-49.548v-0.826h49.548zM161.858 62.761c0 6.606-1.652 8.258-8.258 8.258-18.168 0-37.161 0-55.329-0.826-13.213 0-24.774 4.955-34.684 12.387-5.781 4.129-9.91 9.91-14.039 15.69-0.826 1.652-2.477 3.303-4.955 2.477-2.477 0-1.652-2.477-2.477-4.129 0-1.652-0.826-2.477-0.826-4.129 0.826-30.555-0.826-61.935 0.826-92.49 0-8.258 4.129-13.213 9.084-18.168 3.303-3.303 8.258-1.652 9.91-5.781h84.232c14.865 5.781 16.516 17.342 15.69 30.555 0 18.994 0.826 37.161 0.826 56.155zM978.581 103.226c-1.652 0-2.477-0.826-3.303-2.477-0.826-1.652-1.652-3.303-3.303-4.955-9.91-14.865-23.948-23.948-42.116-24.774-18.994-0.826-38.813 0-58.632 0-7.432 0-9.91-2.477-9.91-9.91v-66.065c0-4.955 1.652-9.91 5.781-13.213 0.826-4.129 5.781-3.303 6.606-6.606h90.839c5.781 2.477 10.735 5.781 13.213 11.561 3.303 3.303 3.303 8.258 3.303 13.213v98.271c0.826 2.477 0 4.955-2.477 4.955zM385.652 646.606h-26.426c-17.342 0-33.032-18.994-32.206-33.858v-23.948c0.826-22.297 16.516-33.032 35.51-34.684 7.432-0.826 15.69 0 23.948 0 10.735 0 17.342 6.606 24.774 13.213 9.91 9.084 8.258 22.297 8.258 33.858v8.258c1.652 17.342-14.865 37.987-33.858 37.161zM654.865 646.606h-26.426c-17.342 0-33.032-18.994-32.206-33.858v-23.948c0.826-22.297 16.516-33.032 35.51-34.684 7.432-0.826 15.69 0 23.948 0 10.735 0 17.342 6.606 24.774 13.213 9.91 9.084 8.258 22.297 8.258 33.858v8.258c1.652 17.342-14.865 37.987-33.858 37.161zM363.355 350.142v-2.477l-0.826-29.729v-19.819h39.639v52.026z"  horiz-adv-x="1024" />

    
    <glyph glyph-name="lvyou1" unicode="&#58955;" d="M556.19584 175.94368l-150.50752 29.55264c2.17088 16.71168 3.76832 32.84992 4.64896 48.31232l103.17824 69.28384a1307.648 1307.648 0 0 0 42.68032-147.1488z m-123.57632 314.38848l-50.8928-34.16064c4.64896-11.71456 9.05216-24.064 12.82048-37.45792l86.87616-17.05984c-13.90592 29.81888-29.42976 58.44992-46.87872 84.80768a82.7392 82.7392 0 0 0-1.92512 3.87072z m76.02176-153.82528a917.0944 917.0944 0 0 1-20.21376 49.68448l-90.19392 17.7152c9.23648-37.74464 14.4384-81.73568 12.9024-132.85376l97.50528 65.45408zM248.99584 571.22816a42.27072 42.27072 0 0 1-2.7648-14.72512c0-16.56832 9.46176-30.78144 23.22432-38.01088-1.45408-4.9152-2.47808-10.01472-2.47808-15.36a54.8864 54.8864 0 0 1 54.86592-54.8864 54.72256 54.72256 0 0 1 49.52064 31.62112c1.67936-3.4816 3.39968-6.94272 5.0176-10.6496l50.46272 33.93536a212.74624 212.74624 0 0 1-2.3552 5.18144 178.50368 178.50368 0 0 0-8.23296 19.90656c6.28736-3.584 13.45536-5.81632 21.21728-5.81632a43.008 43.008 0 1 1-30.57664 73.216c4.64896 62.83264 46.36672 119.25504 111.3088 150.9376a189.48096 189.48096 0 0 0 181.06368-8.13056c-52.87936 73.80992-152.71936 101.13024-237.1584 59.92448a188.928 188.928 0 0 1-98.28352-115.65056c-0.2048 36.51584 9.78944 68.38272 37.888 98.03776a189.39904 189.39904 0 0 0 191.32416 51.4048C523.10016 890.18368 419.59424 891.22816 348.38528 829.97248a188.88704 188.88704 0 0 1-65.67936-133.95968c-33.62816 50.36032-96.01024 77.18912-158.33088 62.27968-71.63904-17.1008-118.55872-83.37408-113.80736-154.46016a148.5824 148.5824 0 0 0 105.6768 95.15008 148.74624 148.74624 0 0 0 157.40928-60.928 188.96896 188.96896 0 0 1-153.27232-6.32832c-84.21376-41.59488-123.71968-137.216-97.66912-224.256a189.17376 189.17376 0 0 0 226.28352 163.75808z m378.59328-517.50912l69.79584 13.7216c-1.024 7.76192-1.76128 15.23712-2.17088 22.40512l-47.86176 32.13312a609.8944 609.8944 0 0 1-19.7632-68.25984z m80.95744 130.048l-23.63392 15.85152c-0.43008-0.88064-0.73728-1.536-0.90112-1.78176a304.90624 304.90624 0 0 1-21.77024-39.36256l40.28416 7.94624c1.78176 6.16448 3.7888 11.8784 6.02112 17.34656z m-49.5616-32.52224c-3.33824-7.55712-6.43072-15.29856-9.35936-23.08096l45.21984-30.33088c-0.7168 23.71584 1.65888 44.09344 6.00064 61.66528l-41.86112-8.25344z m-48.51712 206.88896a88.04352 88.04352 0 0 0 88.7808-23.87968c13.0048-13.74208 17.65376-28.48768 17.55136-45.42464a87.77728 87.77728 0 0 1-45.60896 53.6576 88.08448 88.08448 0 0 1-110.08-27.81184 88.02304 88.02304 0 0 0 84.04992 3.76832c30.14656-14.68416 49.52064-40.87808 51.63008-70.02112a19.98848 19.98848 0 1 1-14.19264-33.97632c3.584 0 6.90176 1.024 9.80992 2.6624-1.06496-3.072-2.29376-6.16448-3.80928-9.23648a31.86688 31.86688 0 0 0-1.10592-2.41664l23.4496-15.70816c0.73728 1.65888 1.536 3.29728 2.31424 4.9152a25.37472 25.37472 0 0 1 48.41472 10.77248c0 2.4576-0.45056 4.87424-1.1264 7.14752a19.84512 19.84512 0 0 1 10.79296 17.6128 19.43552 19.43552 0 0 1-1.29024 6.84032 87.73632 87.73632 0 0 0 56.58624-7.24992 88.02304 88.02304 0 0 0 48.41472-68.7104 87.9616 87.9616 0 0 1-45.32224 104.01792 87.63392 87.63392 0 0 1-71.12704 2.92864 69.12 69.12 0 0 0 73.0112 28.32384 69.0176 69.0176 0 0 0 49.00864-44.15488 68.99712 68.99712 0 0 1-126.27968 42.76224 87.49056 87.49056 0 0 1-30.43328 62.1568 87.79776 87.79776 0 0 1-113.43872 1.024z m109.34272-379.74016c-10.89536 30.53568-17.92 58.12224-21.6064 82.65728l-72.17152-14.21312c-1.6384-7.35232-3.09248-14.39744-4.42368-21.25824l68.77184-46.20288-11.96032 0.32768-58.10176 39.05536c-2.60096-14.336-4.52608-27.09504-5.98016-37.888-8.25344 0.12288-16.65024 0.12288-24.9856 0.16384a1742.5408 1742.5408 0 0 1-17.59232 119.48032l-183.17312-123.02336c-9.07264-0.4096-17.89952-0.83968-26.66496-1.29024l207.0528 139.01824a1662.8736 1662.8736 0 0 1-9.4208 45.91616l-155.66848 30.57664c-9.46176-63.11936-28.7744-135.12704-60.88704-216.53504-134.22592-7.68-224.82944-22.03648-224.82944-38.5024 0-24.55552 200.4992-44.48256 447.7952-44.48256 247.31648 0 447.77472 19.92704 447.77472 44.48256 0.02048 19.21024-122.53184 35.5328-293.92896 41.71776z"  horiz-adv-x="1024" />

    
    <glyph glyph-name="shu" unicode="&#59286;" d="M978.944 286.72C926.72 330.24 890.88 384.512 890.88 420.864c0 27.648 22.528 55.808 63.488 80.384 8.704 5.632 12.8 15.872 10.752 25.6-25.088 107.008-98.816 355.84-257.536 368.64-81.92 6.144-158.72-45.568-220.672-152.064-21.504-37.376-41.984-81.408-59.392-130.56-35.328 53.76-76.8 82.944-122.88 86.528-45.568 4.096-113.152-13.824-174.08-118.784-38.912-66.56-70.656-161.792-90.112-268.288-11.264-61.952 0.512-118.272 33.28-161.28 38.4-49.664 104.448-81.408 184.32-88.576v-137.216c0-12.8 10.24-23.04 23.04-23.04 12.288 0 23.04 10.752 23.04 23.552V61.44c30.72 1.024 59.904 6.144 87.04 14.336 35.84 11.776 66.048 30.72 89.088 54.272 46.592-29.184 104.96-47.104 171.52-52.736h3.584v-182.272c0-12.8 10.24-23.04 23.04-23.04s23.04 10.24 23.04 23.04v181.248c57.344 1.536 111.616 13.312 156.672 34.816 68.096 32.768 112.64 85.504 128.512 152.576 2.048 8.192-0.512 17.408-7.68 23.04zM304.64 107.52v258.048c0 12.8-10.24 23.04-23.04 23.04s-23.04-10.24-23.04-23.04v-78.336L199.68 318.464c-11.264 6.144-25.6 1.536-31.232-9.728-6.144-11.264-1.536-25.6 9.728-31.232l79.872-42.496v-126.464c-65.536 6.656-118.272 31.232-147.456 70.144-25.6 32.768-33.792 75.264-25.088 124.928 30.208 166.912 103.936 357.888 215.04 348.672 48.64-4.096 85.504-55.296 107.52-98.816-14.848-49.152-27.648-102.4-37.376-157.696-14.336-79.872 0.512-150.528 42.496-205.312 9.216-11.776 18.944-22.528 30.208-32.256-31.744-30.208-81.408-48.64-138.752-50.688z m397.312 14.848V391.168c3.072 1.536 5.632 3.072 7.68 5.632l116.736 132.096c8.704 9.728 7.168 24.064-2.048 32.768-9.728 8.704-24.064 7.168-32.768-2.048l-89.6-101.376V622.592c0 12.8-10.24 23.04-23.04 23.04s-23.04-10.24-23.04-23.04v-338.944l-79.872 95.744c-8.704 10.24-23.04 11.776-32.768 3.584-10.24-8.704-11.776-23.04-3.584-32.768l104.96-125.952c2.56-3.584 6.656-6.144 10.752-7.168v-93.184c-66.56 5.12-122.88 24.576-164.864 55.296l-0.512 0.512c-0.512 0-0.512 0.512-1.024 0.512-15.36 11.264-28.672 24.064-39.936 38.4-33.792 44.544-45.056 101.888-33.28 168.96 38.912 215.04 134.144 461.312 277.504 461.312h10.24c86.528-7.168 164.352-125.44 211.968-317.44-46.592-32.256-71.168-70.144-71.168-111.616 0-47.616 34.816-108.032 93.184-159.232-30.208-93.696-132.608-135.68-235.52-138.24z"  horiz-adv-x="1024" />

    
    <glyph glyph-name="refresh" unicode="&#58881;" d="M888.23 503.917L718.385 503.917c-21.6679 0-39.1942 17.5561-39.1942 39.1961 0 21.6382 17.5273 39.1942 39.1942 39.1942l68.1819 0c-61.5039 86.9065-162.641 143.715-277.223 143.715-187.607 0-339.692-152.086-339.692-339.69 0-187.606 152.086-339.691 339.692-339.691 187.606 0 339.691 152.086 339.691 339.691 0 21.6382 17.5264 39.1942 39.1933 39.1942 21.64 0 39.1971-17.5561 39.1971-39.1942 0-230.899-187.2-418.082-418.082-418.082-230.885 0-418.083 187.182-418.083 418.082 0 230.898 187.198 418.081 418.083 418.081 140.127 0 263.895-69.0866 339.691-174.935l0 70.4143c0 21.64 17.5264 39.1952 39.1933 39.1952 21.64 0 39.1971-17.5552 39.1971-39.1952l0-156.78C927.427 521.473 909.868 503.917 888.23 503.917Z"  horiz-adv-x="1024" />

    
    <glyph glyph-name="fangyuan" unicode="&#59241;" d="M813.5 460.9H704.9v40h85L513.1 751.5 232.2 500.9h65v-40h-90.1c-12.7 0-23.9 7.7-28.5 19.6s-1.3 25.1 8.2 33.6l305.5 272.6c11.9 10.6 29.8 10.6 41.6-0.2L834 514.7c9.5-8.6 12.7-22 8.1-34-4.4-12-15.8-19.8-28.6-19.8zM714.8 98.1H287.2c-16.5 0-30 13.5-30 30V463.9c0 16.5 13.5 30 30 30l1-20.5c5.5 0 9-15 9-9.5v-325.8h407.6V469.9c0-5.5 4.5-10 10-10v40c16.5 0 30-13.5 30-30v-341.8c0-16.5-13.4-30-30-30zM562.1 98.1H447.5c-17.6 0-32 14.4-32 32V319.4c0 17.6 14.4 32 32 32h114.6c17.6 0 32-14.4 32-32v-189.3c0-17.6-14.4-32-32-32z m-106.6 40h98.6V311.4h-98.6v-173.3zM928.1-19.6h-830c-17.6 0-32 14.4-32 32v4.2l92.4 208c2.5 15.2 15.7 26.8 31.6 26.8H255v-40h-58.6l-0.1-0.1-84.8-190.9H913l-103.3 191h-64.4v40h70.8c15.5 0 28.5-11.1 31.4-25.8l112.6-208.2v-5.1c0-17.6-14.4-31.9-32-31.9z"  horiz-adv-x="1024" />

    
    <glyph glyph-name="taolun" unicode="&#58902;" d="M546.52416 287.99488h15.9808a15.95136 15.95136 0 0 0 15.98208-15.98208v-255.70816a15.9488 15.9488 0 0 0-15.98208-15.9808h-15.9808a15.9488 15.9488 0 0 0-15.98208 15.9808V272.0128a15.9488 15.9488 0 0 0 15.98208 15.98208z m-79.9104 0h15.98208a15.9488 15.9488 0 0 0 15.98208-15.98208v-255.70816a15.9488 15.9488 0 0 0-15.98208-15.9808h-15.98208a15.9488 15.9488 0 0 0-15.98208 15.9808V272.0128a15.95136 15.95136 0 0 0 15.98208 15.98208zM99.0336 751.46752a31.90016 31.90016 0 0 1-31.96416-31.96416c0-17.57952 14.38336-31.96416 31.96416-31.96416 17.70368 0 31.96416 14.38336 31.96416 31.96416S116.736 751.46752 99.0336 751.46752z m0-111.99616c-44.1344 0-79.90912 35.77472-79.90912 79.90912S54.8992 799.2896 99.0336 799.2896s79.90912-35.77472 79.90912-79.90912c-0.00128-44.01152-35.77472-79.90912-79.90912-79.90912z m223.744-479.33184l-175.79904 95.8912V527.72224s-4.54912 31.96416-47.94624 31.96416c-39.21664 0-47.94624-31.96416-47.94624-31.96416v-239.72736s-2.70464-24.83328 15.98208-31.96416l239.72736-111.872v-191.78112h15.98208V160.13952z m47.94624-15.9808v-191.78112s-3.56608-51.26528-63.92704-47.94624c-46.22336 2.58176-47.94496 47.94624-47.94496 47.94624V112.19456L51.08736 208.08576S3.7568 225.91232 3.1424 272.01152V543.70304s22.00448 63.06688 95.8912 63.92704c76.5888 0.86016 95.8912-63.92704 95.8912-63.92704v-255.70816l143.83616-79.90912c-0.00128 0 30.85568-10.94016 31.96288-63.92704zM514.56 799.53536c-17.70368 0-31.96416-14.26048-31.96416-31.84s14.38336-31.84128 31.96416-31.84128 31.96416 14.26176 31.96416 31.84128S532.2624 799.53536 514.56 799.53536z m0-111.50464c-44.1344 0-79.90912 35.65312-79.90912 79.66336 0 43.88864 35.77472 79.54048 79.90912 79.54048 44.13312 0 79.90912-35.65184 79.90912-79.54048 0-44.01024-35.776-79.66336-79.90912-79.66336z m63.92704-111.3792s-2.82752 32.82432-63.92704 31.84c-65.8944-0.98432-63.92704-31.84-63.92704-31.84v-192.76544h127.85536V576.65152z m175.80032-240.83456H274.83264s-15.98208 2.70336-15.98208 22.00448c0 24.096 15.98208 26.06336 15.98208 26.06336H402.688V592.6336s-0.6144 63.06688 111.872 63.68c103.14368 0.6144 111.872-63.68 111.872-63.68v-208.74752h127.85536s15.9808-6.14656 15.9808-23.48032c0-16.22784-15.9808-24.5888-15.9808-24.5888zM930.08768 751.5904c-17.70368 0-31.96416-14.26176-31.96416-31.84128 0-17.57824 14.26048-31.84 31.96416-31.84 17.57952 0 31.96288 14.26176 31.96288 31.84 0 17.57952-14.38336 31.84128-31.96288 31.84128z m0-111.38048c-44.1344 0-79.9104 35.65184-79.9104 79.5392 0 43.88992 35.77472 79.54048 79.9104 79.54048 44.13312 0 79.90912-35.65184 79.90912-79.54048s-35.776-79.5392-79.90912-79.5392z m47.94496-350.37056V528.70528s-8.72704 31.84-47.82208 31.84c-43.52 0-47.94496-31.84-47.94496-31.84v-270.7072l-175.80032-95.52384v-207.02464h15.9808V146.49344l239.72736 111.38176c18.43968 7.25376 15.8592 31.96416 15.8592 31.96416z m47.94496-15.8592c-0.6144-45.97888-47.94496-63.68128-47.94496-63.68128l-207.7632-95.52256v-159.20256s-1.7216-45.2416-47.94496-47.70048c-60.36224-3.31904-63.92704 47.70048-63.92704 47.70048V146.49344c1.10592 52.86272 31.96416 63.68256 31.96416 63.68256l143.83616 79.54048v254.848s19.30112 64.54144 95.8912 63.68128c73.88544-0.86016 95.88992-63.68128 95.88992-63.68128l-0.00128-270.58432z"  horiz-adv-x="1025" />

    
    <glyph glyph-name="xiaoxi" unicode="&#58883;" d="M804.619203 61.282822h-26.753756c-16.721097 0.668844-32.773351 1.337688-46.150228 2.675375-14.045722 1.337688-27.4226 2.006532-39.46179 4.013064-48.825604 5.350751-94.306989 18.727629-136.444154 40.799477-42.137165 21.403005-78.923579 49.494448-110.359242 82.936643-31.435663 34.111039-56.182887 72.903984-73.572829 116.378837-17.389941 43.474853-26.084912 90.962769-25.416067 140.457218 0.668844 52.169824 11.370346 101.664272 31.435662 147.145656 20.065317 45.481385 47.487916 85.612018 82.267799 119.054213 34.779882 33.442195 74.910516 60.19595 121.060745 79.592423 46.150229 19.396473 95.644677 29.429131 147.8145 28.760288v-20.065317 20.065317c52.169824-0.668844 101.664272-11.370346 147.814501-31.435663 45.481385-20.065317 86.280862-47.487916 119.723056-82.267799 34.111039-34.111039 60.864794-74.910516 80.261268-120.391901 19.396473-46.150229 29.429131-95.644677 28.760287-147.8145-1.337688-49.494448-10.701502-96.313521-28.760287-138.450686-18.058785-42.806009-42.137165-80.261267-70.897453-112.365774-6.019595-7.357283-10.032658-14.045722-11.370346-21.403005 0-2.006532-0.668844-2.675376 3.344219-4.681907 18.727629-10.032658 41.468321-16.721097 68.222077-21.403004h0.668844c11.370346-2.006532 16.721097-11.370346 17.389941-19.396473 1.337688-18.058785-15.38341-23.409536-48.825604-34.111039-29.429131-9.363815-71.566297-16.721097-130.424559-22.071848-26.084912-2.675376-49.494448-4.681907-70.897453-5.350751-10.032658 0-20.065317-0.668844-29.429131-0.668844z m192.627041 58.858262c-6.019595 2.675376-12.708034 5.350751-18.058785 8.694971-18.058785 10.032658-26.753756 27.4226-23.409536 46.819072 2.675376 14.714566 9.363815 28.760287 20.734161 41.468322 26.084912 28.760287 47.487916 62.871326 63.540169 100.995428 16.052253 38.124102 24.747224 79.592423 26.084912 123.73612 0.668844 46.150229-8.026127 90.962769-25.416068 131.762247-17.389941 40.799477-41.468321 77.585892-71.566296 108.35271-30.097975 30.766819-66.215545 55.514043-107.683867 73.572828-40.799477 18.058785-85.612018 27.4226-131.762247 27.4226-46.150229 0.668844-90.962769-8.026127-131.762247-25.416068-41.468321-17.389941-78.254735-41.468321-109.021554-71.566296-30.766819-30.097975-55.514043-65.546702-73.572829-107.015023-18.058785-40.799477-27.4226-84.943174-27.422599-131.762247-0.668844-44.143697 7.357283-86.280862 22.740692-125.073808 15.38341-38.792946 37.455258-74.241672 65.546702-103.670803 28.091444-30.097975 61.533638-55.514043 98.988896-74.910516 38.124102-19.396473 78.923579-31.435663 122.398432-36.117571h0.668844c11.370346-2.006532 24.07838-3.344219 37.455258-4.013063 13.376878-1.337688 28.091444-2.006532 44.143697-2.006532 16.052253-0.668844 34.111039-0.668844 54.176355 0s42.806009 2.006532 67.553234 4.681908c38.792946 4.013063 70.897453 8.694971 95.644676 14.045721z m0 0M913.640758 442.523841c0 21.403005-17.389941 38.792946-38.792946 38.792945-21.403005 0-38.792946-17.389941-38.792946-38.792945 0-21.403005 17.389941-38.792946 38.792946-38.792946 21.403005-0.668844 38.792946 17.389941 38.792946 38.792946z m0 0M765.157413 442.523841c0 21.403005-17.389941 38.792946-38.792945 38.792945-21.403005 0-38.792946-17.389941-38.792946-38.792945 0-14.045722 7.357283-26.753756 19.396473-34.111039 12.03919-6.688439 26.753756-6.688439 38.792946 0 12.03919 7.357283 19.396473 20.065317 19.396472 34.111039z m0 0M616.005225 442.523841c0 21.403005-17.389941 38.792946-38.792945 38.792945-21.403005 0-38.792946-17.389941-38.792946-38.792945 0-14.045722 7.357283-26.753756 19.396473-34.111039 12.03919-6.688439 26.753756-6.688439 38.792945 0 12.03919 7.357283 19.396473 20.065317 19.396473 34.111039z m0 0"  horiz-adv-x="1706" />

    
    <glyph glyph-name="pengyouquan" unicode="&#58895;" d="M512.571005-64.095551c247.107981 0 448.084295 200.976314 448.084295 448.084295 0 247.105934-200.976314 448.084295-448.084295 448.084294S64.48671 631.094678 64.48671 383.988744c0-247.107981 200.976314-448.084295 448.084295-448.084295z m95.544053 523.862165L413.728836 650.86086s39.535435 16.473183 95.544053 16.473184c56.012711 0 95.550193-16.473183 95.550193-16.473184v-191.094246h3.291976z m26.361391-92.251054V637.6817s39.535435-16.473183 79.07087-56.008618c39.540552-39.535435 56.013735-79.071893 56.013735-79.071894L634.476449 367.51556z m-46.12655-79.071893l191.094246 194.387246s16.47216-39.536458 16.47216-95.545077c0-59.306734-16.47216-95.54917-16.47216-95.549169H588.349899v-3.293z m-92.252077-23.067368h270.165116s-16.47216-39.535435-56.008618-79.071893c-39.535435-42.833551-75.777871-59.306734-75.777871-59.306734L496.097822 265.380392v-0.004093z m-79.075987 46.12655l194.390316-191.094246s-39.535435-16.473183-95.54917-16.473183c-56.008618 0-95.545076 16.473183-95.545077 16.473183V311.502849h-3.296069z m-23.063275 88.958055v-270.165117s-39.535435 16.473183-79.07087 56.008619c-39.536458 39.536458-56.008618 79.071893-56.008618 79.071893L393.95856 400.460904z m46.125527 79.077009L248.989841 285.145551s-16.473183 39.536458-16.473183 95.550193c0 59.301618 16.473183 95.544053 16.473183 95.544053h191.094246v3.298116z m88.960101 26.355251H258.878049s16.47216 39.535435 56.008618 79.071894c39.535435 39.540552 79.07087 56.013735 79.07087 56.013734l135.086651-135.085628z m0 0"  horiz-adv-x="1024" />

    
    <glyph glyph-name="index" unicode="&#58882;" d="M362.666667 0.08533299999999144V256.14933299999996c0 36.266667 33.109333 63.850667 72.533333 63.850667h153.6c39.253333 0 72.533333-27.648 72.533333-63.850667v-256.064h59.904c61.269333 0 110.762667 47.957333 110.762667 106.730667V481.834667L557.162667 756.672a63.808 63.808 0 0 1-90.325334 0L192 481.834667v-375.018667c0-58.88 49.386667-106.730667 110.762667-106.730667H362.666667z m42.666666 0h213.333334V256.14933299999996c0 10.709333-12.586667 21.184-29.866667 21.184h-153.6c-17.408 0-29.866667-10.389333-29.866667-21.184v-256.064z m469.333334 439.082667v-332.352c0-82.645333-68.885333-149.397333-153.429334-149.397333H302.762667C218.133333-42.58133299999997 149.333333 24.063999999999965 149.333333 106.81600000000003V439.168l-27.584-27.584a21.333333 21.333333 0 1 0-30.165333 30.165333L436.672 786.837333a106.474667 106.474667 0 0 0 150.656 0l345.088-345.088a21.333333 21.333333 0 0 0-30.165333-30.165333L874.666667 439.168z"  horiz-adv-x="1024" />

    
    <glyph glyph-name="zhaogongzuo" unicode="&#58916;" d="M406.50105219 328.79999999999995H94.4v-62.4h312.07578937v-31.22526281h312.05052657v31.2H1030.65263187v62.4H718.55157875V360H406.50105219v-31.2zM350.31578938 703.27578937V829.66736812C350.31578938 848.61473719 363.88210531 864 380.63157875 864h363.78947344c16.74947344 0 30.31578937-15.36 30.31579031-34.33263187v-126.39157876h265.2631575c29.30526281 0 53.05263188-23.74736812 53.05263187-53.05263187v-689.68420969a53.05263188 53.05263188 0 0 0-53.05263187-53.05263187H85.05263187a53.05263188 53.05263188 0 0 0-53.05263187 53.05263187v689.68420969c0 29.30526281 23.74736812 53.05263188 53.05263187 53.05263188h265.2631575z m53.05263187 1e-8h318.31578938V769.76842125c0 22.76210531-14.24842125 41.20421063-31.83157876 41.20421062H435.2c-17.5831575 0-31.83157875-18.44210531-31.83157875-41.17894781v-66.49263187z"  horiz-adv-x="1131" />

    
    <glyph glyph-name="jiahao" unicode="&#59002;" d="M512-128C227.06087-128 0 99.06087 0 384S227.06087 896 512 896 1024 668.93913 1024 384 796.93913-128 512-128z m0 44.521739C770.226087-83.478261 979.478261 125.773913 979.478261 384S770.226087 851.478261 512 851.478261 44.521739 642.226087 44.521739 384 253.773913-83.478261 512-83.478261zM489.73913 406.26087V584.347826h44.52174v-178.086956h178.086956v-44.52174h-178.086956v-178.086956h-44.52174v178.086956H311.652174v44.52174h178.086956z"  horiz-adv-x="1024" />

    
    <glyph glyph-name="a-qingnianjiaoyou" unicode="&#58892;" d="M751.9 472.7c-13 0-25.6-2.3-37.6-6.6 16.6 89.9-22.5 165.6-82.4 202.4-56.9 34.9-140.1 35.2-200.4-38.2-40.3 48.8-95.3 70.3-151.8 57.9-69-15.1-122.3-76.6-132.7-153.1-8.3-61.1 1.7-219.4 273.9-367.7 3.3-1.8 6.9-2.7 10.6-2.7 3.6 0 7.2 0.9 10.6 2.7 20.1 10.9 39.3 22.3 57.4 33.9 34.7-44.4 86.3-85.4 153.8-122.2 3.3-1.8 6.9-2.7 10.6-2.7 3.6 0 7.3 0.9 10.6 2.7 80.1 43.6 137.7 93.2 171.4 147.3 37.4 60 36.1 110.5 28.4 142.3-14.5 60.2-66 104-122.4 104M664 126C482.6 228.7 490.5 328.8 497.4 357.4c9.6 39.9 42.7 68.8 78.6 68.8 26.6 0 51-16.2 68.8-45.5 4.1-6.8 11.4-11 19.2-11 7.8 0 15 4.2 19.2 11 17.7 29.3 42.2 45.5 68.8 45.5 36 0 69.1-29 78.6-68.8 6.8-28.6 14.7-128.7-166.6-231.4"  horiz-adv-x="1024" />

    
    <glyph glyph-name="jiazhuang" unicode="&#59112;" d="M871.4 350.7L748.2 227.6c-6.4-6.5-15.6-10.2-25.2-10.2s-18.8 3.7-25.2 10.2L357.9 568c-13.9 13.9-13.9 36.5 0 50.4l123.2 123.1c6.7 6.7 15.7 10.4 25.2 10.4s18.5-3.7 25.2-10.4L871.4 401c6.7-6.7 10.4-15.7 10.4-25.2 0.1-9.4-3.7-18.4-10.4-25.1zM433.1 153.1l-65.8-65.8-0.3-0.3-61.7-61.7c-6.7-6.7-15.7-10.4-25.2-10.4s-18.5 3.7-25.2 10.4L152.2 128c-13.9 13.9-13.9 36.5 0 50.4l61.6 61.6 66.3 66.2 153-153.1z m493.6 222.8c0 21.5-8.4 41.7-23.5 56.9L563.3 773.2c-14.4 14.5-35.2 22.8-56.9 22.8-21.7 0-42.4-8.3-56.9-22.7L326.2 650.1c-31.4-31.4-31.4-82.5 0-113.9l339.9-340.4c15.2-15.2 35.4-23.6 57-23.6 21.5 0 41.7 8.4 56.9 23.6l36.7 36.7 28.4-28.4c13.6-13.6 14.4-36 1.7-48.9l-0.2-0.2-87-74.5c-6.7-6.6-15.5-10.3-25-10.3s-18.5 3.7-25.2 10.5l-225.6 226c-15.2 15.2-35.4 23.6-57 23.6-21.5 0-41.7-8.3-56.8-23.5l-13.4-13.4-60.6 60.4c-4.2 4.2-9.9 6.6-15.9 6.6-5.1 0-10-1.7-14-4.9v-3.7h-3.9l-18.5-18.5-123.2-123.1c-31.4-31.4-31.4-82.5 0-113.9l102.6-102.7c15.2-15.2 35.4-23.5 56.9-23.5s41.7 8.3 56.9 23.5l122.8 122.7 0.2 0.3 20.7 20.7c4.2 4.2 6.6 9.9 6.6 15.9 0 5.9-2.4 11.7-6.5 15.9l-92.6 92.6 13.4 13.4c6.7 6.7 15.6 10.5 25.2 10.5 4.8 0 9.5-1 14-2.8v3.7l14.2-14.2 1.9-2L677.5 49c15.3-15.3 35.7-23.7 57.5-23.7 21 0 40.4 7.9 54.6 22.2l0.2 0.2 87 74.5c31.2 31.4 31.2 82.4-0.2 113.7l-28.4 28.4L903 319c15.3 15.2 23.7 35.4 23.7 56.9zM522.8 687.5c-4.2 4.3-9.9 6.7-16 6.7-5.9 0-11.5-2.3-15.7-6.4-8.8-8.7-9-22.9-0.3-31.7l292.6-298.7c4.3-4.3 9.9-6.7 16-6.7 5.9 0 11.5 2.3 15.7 6.4 8.8 8.6 9 22.9 0.3 31.7L522.8 687.5z"  horiz-adv-x="1024" />

    
    <glyph glyph-name="luntan" unicode="&#59086;" d="M512 896C229.2 896 0 666.8 0 384s229.2-512 512-512 512 229.2 512 512S794.8 896 512 896z m320-770.1c0-11.1-9-20.1-20.1-20.1H212.1c-11.1 0-20.1 9-20.1 20.1v243c0 7.7 4.4 14.8 11.4 18.1L310 438l-29.4 41.3c-2.4 3.4-3.7 7.5-3.7 11.6v76.2c0 53.2 42.6 94.9 97 94.9s97-41.7 97-94.9V491c0-4.1-1.2-8-3.5-11.4l-30.2-43.9 52.4-34.5-22.1-33.5-69.5 45.8c-4.5 3-7.6 7.6-8.7 12.9-1 5.3 0.1 10.8 3.2 15.2l38.2 55.6v70c0 30.7-25 54.8-56.9 54.8s-56.9-24.1-56.9-54.8v-69.8l39.5-55.5c3.4-4.8 4.6-10.9 3.1-16.7-1.5-5.7-5.4-10.5-10.8-13.1L232 356.2V146h559.7V356.5l-111.6 55.8c-5.2 2.6-9 7.3-10.5 12.9-1.5 5.6-0.4 11.6 2.9 16.4l38.2 55.6v70c0 30.7-25 54.8-56.9 54.8s-56.9-24.1-56.9-54.8v-69.8l39.5-55.5c3.1-4.3 4.3-9.7 3.4-15-0.9-5.2-3.8-9.9-8.2-13L567 368.1l-23.2 32.7 48.2 34.1-31.6 44.4c-2.4 3.4-3.7 7.5-3.7 11.6v76.2c0 53.2 42.6 94.9 97 94.9s97-41.7 97-94.9V491c0-4.1-1.2-8-3.5-11.4l-28.7-41.8 102.1-51c6.8-3.4 11.1-10.3 11.1-17.9v-243z"  horiz-adv-x="1024" />

    
    <glyph glyph-name="faxian" unicode="&#59078;" d="M512 480.672c-52.992 0-96-43.008-96-96s43.008-96 96-96 96 43.008 96 96-43.008 96-96 96m0-320c-123.616 0-224 100.384-224 224s100.384 224 224 224 224-100.384 224-224-100.384-224-224-224M512 736C285.28 736 89.536 592.224 0 384.672 89.536 177.12 285.28 33.344 512 33.344c226.72 0 422.464 143.776 512 351.328C934.464 592.224 738.72 736 512 736"  horiz-adv-x="1024" />

    
    <glyph glyph-name="ICONbiaozhun_fuzhi-" unicode="&#58898;" d="M480 64a352 352 0 1 0 352 352 352 352 0 0 0-352-352z m0 640a288 288 0 1 1 288-288 288 288 0 0 1-288 288zM864 0a32 32 0 0 0-22.72 9.28l-135.68 136a32 32 0 0 0 45.12 45.12l136-135.68a32 32 0 0 0 0-45.44A32 32 0 0 0 864 0z"  horiz-adv-x="1024" />

    
    <glyph glyph-name="yuyutianxiayuxianxing" unicode="&#59896;" d="M550.855111 56.888889a28.444444 28.444444 0 0 0 10.410667-38.855111l-42.666667-73.898667a28.444444 28.444444 0 0 0-49.265778 28.444445l42.666667 73.898666a28.444444 28.444444 0 0 0 38.855111 10.410667z m-284.444444 0a28.444444 28.444444 0 0 0 10.410666-38.855111l-42.666666-73.898667a28.444444 28.444444 0 0 0-49.265778 28.444445L227.555556 46.478222a28.444444 28.444444 0 0 0 38.855111 10.410667z m568.888889 0a28.444444 28.444444 0 0 0 10.410666-38.855111l-42.666666-73.898667a28.444444 28.444444 0 0 0-49.265778 28.444445l42.666666 73.898666a28.444444 28.444444 0 0 0 38.855112 10.410667zM560.896 810.666667c135.964444 0 250.680889-90.823111 286.833778-215.125334a232.874667 232.874667 0 0 0-85.048889-449.763555H240.014222a211.569778 211.569778 0 0 0 0 423.111111h27.619556c26.567111 137.728 147.768889 241.777778 293.262222 241.777778z m-237.397333-252.558223L314.595556 512H239.985778a154.680889 154.680889 0 0 1 0-309.333333H762.680889a175.985778 175.985778 0 0 1 64.256 339.911111l-26.026667 10.24-7.822222 26.823111a241.891556 241.891556 0 0 1-469.617778-21.532445z"  horiz-adv-x="1024" />

    


  </font>
</defs>
</svg>
